M48
;FILE_FORMAT=3:3
METRIC,000.000
;TYPE=PLATED
T01C0.500
T03C1.000
;TYPE=NON_PLATED
T02C0.800
T04C3.000
%
T01
X+669158Y+1018712
X+666347Y+1025239
X+664500Y+1023500
X+665534Y+1032750
X+666234Y+1038956
X+673442Y+1014790
X+673224Y+1018906
X+671700Y+1014700
X+676776Y+1033177
X+672500Y+1035600
X+672522Y+1038433
X+677337Y+1044633
X+683980Y+1017891
X+681552Y+1023897
X+680070Y+1034617
X+679700Y+1038400
X+683005Y+1037070
X+685037Y+1050453
X+691001Y+1017367
X+691243Y+1025461
X+692718Y+1029500
X+692510Y+1039017
X+689950Y+1041052
X+694436Y+1015599
X+696850Y+1016529
X+698100Y+1019400
X+698216Y+1026941
X+697919Y+1025453
X+695571Y+1030804
X+698949Y+1030160
X+697502Y+1033529
X+699353Y+1033269
X+695758Y+1032654
X+700004Y+1035670
X+700184Y+1048350
X+694933Y+1049000
X+705498Y+1020349
X+701680Y+1026639
X+704900Y+1035100
X+706311Y+1030200
X+701624Y+1029278
X+706838Y+1039204
X+704630Y+1048917
X+710817Y+1029442
X+710870Y+1032354
X+711400Y+1030800
X+710357Y+1033773
X+709592Y+1035089
X+669203Y+1021550
X+676245Y+1036381
X+687720Y+1028475
X+700144Y+1028716
X+669986Y+1019957
X+670657Y+1040191
X+693400Y+1018900
X+692957Y+1025356
X+677861Y+1022004
X+701309Y+1031849
X+693332Y+1033357
X+678300Y+1031200
X+701089Y+1042446
X+693503Y+1037957
X+685751Y+1039143
X+692933Y+1049000
X+708091Y+1042281
X+708596Y+1036948
T02
X+683600Y+1048640
X+711800
T03
X+708760Y+1017500
X+706220
X+701140
X+698600
X+703680
X+706565Y+1024198
X+701485
X+704025
T04
X+665400Y+1015400
T00
M30
