<?xml version="1.0" encoding="utf-8"?>
<!-- Generator: Adobe Illustrator 15.1.0, SVG Export Plug-In . SVG Version: 6.00 Build 0)  -->
<!DOCTYPE svg PUBLIC "-//W3C//DTD SVG 1.1//EN" "http://www.w3.org/Graphics/SVG/1.1/DTD/svg11.dtd">
<svg version="1.1" id="Layer_1" xmlns="http://www.w3.org/2000/svg" xmlns:xlink="http://www.w3.org/1999/xlink" x="0px" y="0px"
	 width="14.173px" height="14.173px" viewBox="0 0 14.173 14.173" enable-background="new 0 0 14.173 14.173" xml:space="preserve">
<path fill="#272E3A" d="M12.299,0.322L7.086,5.534L1.874,0.322c-0.429-0.429-1.125-0.429-1.553,0c-0.428,0.43-0.429,1.125,0,1.553
	l5.213,5.212l-5.213,5.211c-0.429,0.429-0.429,1.125,0,1.553c0.431,0.428,1.124,0.429,1.555,0l5.21-5.211l5.213,5.212
	c0.43,0.429,1.124,0.429,1.553,0c0.428-0.429,0.429-1.125,0-1.553L8.639,7.087l5.213-5.212c0.428-0.428,0.429-1.125,0-1.554
	C13.423-0.108,12.727-0.105,12.299,0.322z"/>
</svg>
