<?xml version="1.0" encoding="utf-8"?>
<!-- Generator: Adobe Illustrator 15.1.0, SVG Export Plug-In . SVG Version: 6.00 Build 0)  -->
<!DOCTYPE svg PUBLIC "-//W3C//DTD SVG 1.1//EN" "http://www.w3.org/Graphics/SVG/1.1/DTD/svg11.dtd">
<svg version="1.1" id="Layer_1" xmlns="http://www.w3.org/2000/svg" xmlns:xlink="http://www.w3.org/1999/xlink" x="0px" y="0px"
	 width="168.277px" height="50px" viewBox="0 0 168.277 50" enable-background="new 0 0 168.277 50" xml:space="preserve">
<g>
	<g>
		<g>
			<path fill="#FFFFFF" d="M124.859,17.245c0-9.089-7.392-16.484-16.479-16.484H88.617L88.614,48.83h9.967l0.005-38.105h9.794
				c3.593,0,6.516,2.925,6.516,6.52c0,3.567-2.938,6.468-6.547,6.468l-9.59-0.008l6.981,9.076l0.313,0.004
				c0,0,1.037,0.016,2.307,0.016c2.18,0,3.617-0.043,4.271-0.131C119.603,31.748,124.859,25.115,124.859,17.245z"/>
		</g>
		<g>
			<rect x="70.098" y="0.761" fill="#FFFFFF" width="9.967" height="48.069"/>
		</g>
		<g>
			<path fill="#FFFFFF" d="M163.485,26.086l-0.271-0.219l-20.005-9.914c-0.731-0.605-1.238-1.555-1.238-2.33
				c0-1.572,1.277-2.851,2.848-2.851l14.333-0.003l3.957-9.969l-18.29,0.007c-7.066,0-12.814,5.749-12.814,12.816
				c0,4.024,2.11,8.054,5.507,10.515l19.894,9.863c0.605,0.564,0.901,1.18,0.901,1.881c0,1.59-1.363,2.984-2.917,2.984
				l-45.284-0.004l7.92,9.967l37.364,0.006c7.106,0,12.889-5.811,12.889-12.953C168.277,32.088,166.577,28.609,163.485,26.086z"/>
		</g>
	</g>
	<g>
		<path fill="#FFFFFF" d="M42.983,41.904c-0.625-0.336-1.329-0.512-2.035-0.512c-0.371,0-0.733,0.049-1.082,0.139l-7.576-11.375
			c0.509-0.471,0.946-1.029,1.286-1.66c1.439-2.674,0.767-5.923-1.433-7.84l6.516-12.11c0.224,0.036,0.45,0.061,0.677,0.061
			c1.587,0,3.041-0.868,3.793-2.265c0.544-1.012,0.662-2.175,0.331-3.276c-0.331-1.101-1.07-2.007-2.082-2.552
			C40.754,0.178,40.05,0,39.343,0c-1.587,0-3.04,0.868-3.791,2.263c-0.545,1.012-0.664,2.175-0.333,3.276
			c0.19,0.634,0.519,1.2,0.954,1.673L29.66,19.317c-0.555-0.154-1.129-0.237-1.705-0.237c-2.357,0-4.515,1.289-5.63,3.363
			c-0.344,0.64-0.561,1.313-0.672,1.993L8.369,24.442c-0.354-1.025-1.063-1.87-2.023-2.386c-0.625-0.336-1.33-0.514-2.036-0.514
			c-1.588,0-3.042,0.869-3.793,2.267c-0.545,1.01-0.663,2.174-0.331,3.276c0.331,1.1,1.07,2.006,2.083,2.551
			c0.625,0.336,1.33,0.514,2.036,0.514c1.587,0,3.04-0.867,3.791-2.264c0.108-0.201,0.195-0.41,0.27-0.623l13.458-0.006
			c0.462,1.588,1.533,2.998,3.1,3.842c0.929,0.5,1.974,0.764,3.022,0.764c0.654,0,1.292-0.104,1.898-0.291l7.676,11.525
			c-0.134,0.176-0.256,0.363-0.363,0.561c-1.123,2.088-0.338,4.701,1.75,5.828C39.531,49.822,40.235,50,40.942,50
			c1.588,0,3.041-0.869,3.791-2.266c0.544-1.012,0.663-2.176,0.333-3.277C44.736,43.357,43.996,42.451,42.983,41.904z M5.61,26.547
			c-0.258,0.482-0.759,0.781-1.306,0.781c-0.246,0-0.481-0.061-0.7-0.178C3.255,26.963,3,26.65,2.886,26.271S2.813,25.492,3,25.145
			c0.259-0.482,0.761-0.781,1.309-0.781c0.245,0,0.48,0.059,0.699,0.175c0.349,0.188,0.603,0.5,0.717,0.879
			S5.798,26.199,5.61,26.547z M38.037,3.601c0.258-0.48,0.759-0.779,1.306-0.779c0.245,0,0.48,0.06,0.7,0.178
			c0.348,0.187,0.603,0.5,0.717,0.878c0.114,0.379,0.073,0.78-0.114,1.127c-0.259,0.482-0.761,0.781-1.309,0.781
			c-0.245,0-0.48-0.06-0.698-0.177c-0.349-0.188-0.604-0.5-0.717-0.88S37.849,3.95,38.037,3.601z M42.249,46.398
			c-0.258,0.48-0.759,0.779-1.306,0.779c-0.246,0-0.48-0.059-0.698-0.176c-0.72-0.389-0.991-1.289-0.604-2.008
			c0.259-0.482,0.761-0.781,1.309-0.781c0.245,0,0.48,0.061,0.699,0.178c0.349,0.188,0.603,0.498,0.717,0.879
			C42.478,45.648,42.437,46.049,42.249,46.398z"/>
		<path fill="#FFFFFF" d="M13.487,8.919c0.625,0.336,1.328,0.514,2.034,0.514c1.587,0,3.041-0.868,3.794-2.265
			c1.123-2.087,0.338-4.701-1.751-5.828c-0.625-0.336-1.33-0.514-2.037-0.514c-1.587,0-3.04,0.868-3.792,2.264
			C10.612,5.18,11.397,7.794,13.487,8.919z M14.221,4.426c0.259-0.481,0.76-0.78,1.308-0.78c0.246,0,0.481,0.06,0.699,0.177
			c0.72,0.388,0.991,1.289,0.605,2.006c-0.26,0.482-0.762,0.782-1.311,0.782c-0.245,0-0.479-0.06-0.698-0.177
			C14.104,6.047,13.834,5.146,14.221,4.426z"/>
		<path fill="#FFFFFF" d="M53.396,21.682c-0.625-0.337-1.33-0.515-2.037-0.515c-1.588,0-3.04,0.868-3.79,2.264
			c-0.545,1.013-0.664,2.177-0.333,3.276c0.33,1.102,1.07,2.008,2.082,2.553c0.625,0.336,1.329,0.514,2.035,0.514
			c1.588,0,3.041-0.867,3.795-2.266C56.27,25.418,55.484,22.805,53.396,21.682z M52.663,26.172c-0.26,0.48-0.762,0.781-1.311,0.781
			c-0.244,0-0.479-0.061-0.697-0.178c-0.349-0.188-0.604-0.5-0.718-0.879c-0.113-0.379-0.072-0.779,0.116-1.131
			c0.258-0.479,0.758-0.777,1.305-0.777c0.245,0,0.481,0.06,0.7,0.178C52.778,24.553,53.049,25.453,52.663,26.172z"/>
		<path fill="#FFFFFF" d="M19.139,41.848c-0.626-0.338-1.331-0.516-2.039-0.516c-1.586,0-3.039,0.867-3.79,2.264
			c-0.545,1.012-0.663,2.176-0.333,3.277c0.331,1.102,1.07,2.008,2.082,2.551c0.625,0.338,1.33,0.516,2.037,0.516
			c1.588,0,3.041-0.869,3.792-2.266C22.012,45.586,21.227,42.973,19.139,41.848z M18.404,46.338c-0.259,0.48-0.76,0.779-1.308,0.779
			c-0.245,0-0.48-0.059-0.7-0.178c-0.348-0.188-0.603-0.498-0.716-0.877c-0.114-0.379-0.073-0.781,0.115-1.129
			c0.259-0.482,0.759-0.781,1.306-0.781c0.245,0,0.481,0.061,0.7,0.18C18.521,44.719,18.791,45.619,18.404,46.338z"/>
	</g>
</g>
</svg>
