<?xml version="1.0" encoding="utf-8"?>
<!-- Generator: Adobe Illustrator 15.1.0, SVG Export Plug-In . SVG Version: 6.00 Build 0)  -->
<!DOCTYPE svg PUBLIC "-//W3C//DTD SVG 1.1//EN" "http://www.w3.org/Graphics/SVG/1.1/DTD/svg11.dtd">
<svg version="1.1" id="Layer_1" xmlns="http://www.w3.org/2000/svg" xmlns:xlink="http://www.w3.org/1999/xlink" x="0px" y="0px"
	 width="13.998px" height="15.672px" viewBox="-0.579 0.109 13.998 15.672" enable-background="new -0.579 0.109 13.998 15.672"
	 xml:space="preserve">
<g>
	<path fill="#AAB1BC" d="M11.161,4.857c-0.414,0-0.75,0.336-0.75,0.75v8.674H2.45V5.607c0-0.414-0.336-0.75-0.75-0.75
		s-0.75,0.336-0.75,0.75v9.424c0,0.414,0.336,0.75,0.75,0.75h9.461c0.414,0,0.75-0.336,0.75-0.75V5.607
		C11.911,5.193,11.575,4.857,11.161,4.857z"/>
	<path fill="#AAB1BC" d="M12.669,2.059H8.902V0.859c0-0.414-0.336-0.75-0.75-0.75H4.71c-0.414,0-0.75,0.336-0.75,0.75v1.199H0.171
		c-0.414,0-0.75,0.336-0.75,0.75s0.336,0.75,0.75,0.75H4.71h3.442h4.517c0.414,0,0.75-0.336,0.75-0.75S13.083,2.059,12.669,2.059z
		 M5.46,2.059V1.609h1.942v0.449H5.46z"/>
	<path fill="#AAB1BC" d="M5.46,12.035V5.607c0-0.414-0.336-0.75-0.75-0.75s-0.75,0.336-0.75,0.75v6.428
		c0,0.414,0.336,0.75,0.75,0.75S5.46,12.449,5.46,12.035z"/>
	<path fill="#AAB1BC" d="M8.902,12.035V5.607c0-0.414-0.336-0.75-0.75-0.75s-0.75,0.336-0.75,0.75v6.428
		c0,0.414,0.336,0.75,0.75,0.75S8.902,12.449,8.902,12.035z"/>
</g>
</svg>
