<?xml version="1.0" encoding="utf-8"?>
<!-- Generator: Adobe Illustrator 15.1.0, SVG Export Plug-In . SVG Version: 6.00 Build 0)  -->
<!DOCTYPE svg PUBLIC "-//W3C//DTD SVG 1.1//EN" "http://www.w3.org/Graphics/SVG/1.1/DTD/svg11.dtd">
<svg version="1.1" id="Layer_1" xmlns="http://www.w3.org/2000/svg" xmlns:xlink="http://www.w3.org/1999/xlink" x="0px" y="0px"
	 width="144.252px" height="27px" viewBox="0 0 144.252 27" enable-background="new 0 0 144.252 27" xml:space="preserve">
<g>
	<g>
		<path fill="#FFFFFF" d="M92.658,2.941h-2.031V2.308c0-0.399-0.02-0.649-0.059-0.749c-0.039-0.101-0.131-0.152-0.275-0.152
			c-0.125,0-0.211,0.045-0.256,0.13c-0.045,0.087-0.066,0.308-0.066,0.664v3.347c0,0.314,0.021,0.521,0.066,0.618
			c0.045,0.1,0.137,0.15,0.271,0.15c0.148,0,0.248-0.057,0.301-0.169s0.08-0.331,0.08-0.655V4.664h-0.41v-1.06h2.379v3.744h-1.277
			l-0.188-0.5c-0.139,0.216-0.313,0.377-0.523,0.484s-0.461,0.162-0.746,0.162c-0.342,0-0.662-0.074-0.959-0.222
			c-0.297-0.148-0.523-0.331-0.68-0.55c-0.154-0.219-0.25-0.447-0.287-0.688c-0.041-0.239-0.059-0.599-0.059-1.079V2.886
			c0-0.667,0.039-1.15,0.119-1.452c0.082-0.303,0.313-0.578,0.693-0.83c0.381-0.251,0.873-0.377,1.479-0.377
			c0.596,0,1.088,0.108,1.482,0.327c0.393,0.219,0.646,0.479,0.766,0.778c0.119,0.299,0.18,0.735,0.18,1.308V2.941z"/>
		<path fill="#FFFFFF" d="M93.443,0.373h1.439c0.957,0,1.607,0.033,1.947,0.099c0.338,0.067,0.615,0.235,0.83,0.507
			c0.213,0.271,0.32,0.705,0.32,1.299c0,0.543-0.076,0.907-0.227,1.094c-0.15,0.188-0.449,0.3-0.893,0.336
			c0.402,0.091,0.672,0.21,0.811,0.358s0.225,0.287,0.258,0.412s0.051,0.469,0.051,1.031v1.84h-1.887V5.03
			c0-0.372-0.033-0.604-0.1-0.693c-0.064-0.089-0.238-0.134-0.518-0.134v3.146h-2.033V0.373z M95.477,1.566v1.551
			c0.229,0,0.389-0.028,0.479-0.084c0.094-0.056,0.139-0.237,0.139-0.545V2.105c0-0.222-0.045-0.366-0.133-0.436
			S95.711,1.566,95.477,1.566z"/>
		<path fill="#FFFFFF" d="M103.408,4.458c0,0.701-0.018,1.196-0.055,1.488s-0.152,0.558-0.348,0.799
			c-0.193,0.242-0.457,0.427-0.789,0.556c-0.33,0.13-0.717,0.194-1.158,0.194c-0.418,0-0.793-0.062-1.127-0.184
			c-0.332-0.122-0.6-0.305-0.803-0.549s-0.322-0.51-0.361-0.797s-0.059-0.789-0.059-1.508V3.264c0-0.701,0.02-1.196,0.055-1.488
			c0.039-0.292,0.154-0.558,0.348-0.799C99.307,0.734,99.57,0.55,99.9,0.421c0.332-0.13,0.719-0.194,1.158-0.194
			c0.418,0,0.795,0.061,1.127,0.184c0.334,0.122,0.602,0.305,0.803,0.549c0.203,0.244,0.324,0.51,0.363,0.797
			c0.037,0.287,0.057,0.79,0.057,1.508V4.458z M101.379,2.165c0-0.324-0.021-0.532-0.061-0.622c-0.041-0.09-0.125-0.137-0.25-0.137
			c-0.105,0-0.188,0.037-0.244,0.11s-0.084,0.289-0.084,0.648v3.257c0,0.405,0.018,0.655,0.057,0.75
			c0.035,0.095,0.123,0.144,0.258,0.144c0.139,0,0.227-0.056,0.266-0.165c0.037-0.109,0.059-0.369,0.059-0.78V2.165z"/>
		<path fill="#FFFFFF" d="M108.785,0.373v4.661c0,0.529-0.02,0.9-0.059,1.114c-0.039,0.215-0.152,0.434-0.342,0.659
			c-0.191,0.226-0.441,0.396-0.752,0.513c-0.309,0.116-0.676,0.175-1.098,0.175c-0.465,0-0.877-0.069-1.234-0.206
			c-0.357-0.139-0.625-0.318-0.801-0.54c-0.178-0.221-0.281-0.454-0.314-0.699c-0.031-0.245-0.049-0.762-0.049-1.55V0.373h2.033
			v5.23c0,0.305,0.018,0.499,0.055,0.584s0.111,0.128,0.225,0.128c0.129,0,0.211-0.048,0.248-0.141
			c0.037-0.094,0.057-0.313,0.057-0.662v-5.14H108.785z"/>
		<path fill="#FFFFFF" d="M109.57,0.373h2.047c0.553,0,0.979,0.039,1.275,0.115c0.299,0.079,0.521,0.19,0.672,0.337
			s0.25,0.324,0.303,0.532c0.055,0.209,0.08,0.531,0.08,0.967v0.608c0,0.444-0.051,0.769-0.154,0.974
			c-0.104,0.204-0.291,0.359-0.566,0.47c-0.275,0.109-0.635,0.163-1.078,0.163h-0.545v2.81h-2.033V0.373z M111.604,1.566v1.775
			c0.057,0.003,0.107,0.005,0.148,0.005c0.188,0,0.316-0.042,0.389-0.123c0.072-0.083,0.109-0.252,0.109-0.511V2.14
			c0-0.238-0.043-0.394-0.125-0.466C112.039,1.603,111.865,1.566,111.604,1.566z"/>
		<path fill="#FFFFFF" d="M120.916,4.458c0,0.701-0.02,1.196-0.055,1.488c-0.037,0.292-0.154,0.558-0.348,0.799
			c-0.195,0.242-0.459,0.427-0.789,0.556c-0.332,0.13-0.719,0.194-1.158,0.194c-0.42,0-0.795-0.062-1.127-0.184
			s-0.602-0.305-0.803-0.549c-0.203-0.244-0.324-0.51-0.363-0.797s-0.059-0.789-0.059-1.508V3.264c0-0.701,0.02-1.196,0.057-1.488
			s0.152-0.558,0.348-0.799c0.195-0.242,0.457-0.427,0.789-0.556c0.332-0.13,0.717-0.194,1.158-0.194
			c0.418,0,0.793,0.061,1.125,0.184c0.334,0.122,0.602,0.305,0.805,0.549s0.324,0.51,0.361,0.797
			c0.039,0.287,0.059,0.79,0.059,1.508V4.458z M118.885,2.165c0-0.324-0.02-0.532-0.061-0.622s-0.123-0.137-0.248-0.137
			c-0.107,0-0.188,0.037-0.244,0.11s-0.084,0.289-0.084,0.648v3.257c0,0.405,0.018,0.655,0.055,0.75s0.123,0.144,0.258,0.144
			c0.139,0,0.227-0.056,0.266-0.165s0.059-0.369,0.059-0.78V2.165z"/>
		<path fill="#FFFFFF" d="M121.674,0.373h3.441V1.77h-1.41v1.322h1.254v1.327h-1.254v2.93h-2.031V0.373z"/>
		<path fill="#FFFFFF" d="M90.027,10.125v6.976h-2.029v-6.976H90.027z"/>
		<path fill="#FFFFFF" d="M95.379,10.125v6.976H93.6l-1.057-3.171v3.171h-1.699v-6.976h1.699l1.139,3.142v-3.142H95.379z"/>
		<path fill="#FFFFFF" d="M96.195,10.125h1.52c0.982,0,1.645,0.04,1.99,0.121c0.346,0.08,0.609,0.213,0.789,0.396
			s0.293,0.389,0.338,0.613c0.045,0.227,0.068,0.67,0.068,1.33v2.442c0,0.626-0.033,1.045-0.1,1.256
			c-0.066,0.212-0.182,0.377-0.344,0.496c-0.164,0.119-0.367,0.202-0.609,0.249c-0.24,0.048-0.605,0.071-1.09,0.071h-2.563V10.125z
			 M98.227,11.319v4.588c0.293,0,0.473-0.052,0.541-0.157c0.066-0.104,0.102-0.39,0.102-0.854v-2.71
			c0-0.316-0.012-0.519-0.035-0.607c-0.021-0.09-0.074-0.155-0.154-0.197C98.6,11.341,98.449,11.319,98.227,11.319z"/>
		<path fill="#FFFFFF" d="M106.275,10.125v4.662c0,0.528-0.02,0.9-0.059,1.114c-0.037,0.214-0.152,0.433-0.342,0.658
			c-0.189,0.227-0.439,0.397-0.75,0.514s-0.678,0.174-1.098,0.174c-0.467,0-0.879-0.068-1.236-0.206s-0.623-0.317-0.801-0.538
			c-0.178-0.223-0.281-0.456-0.314-0.701c-0.031-0.245-0.047-0.762-0.047-1.549v-4.128h2.031v5.231c0,0.304,0.018,0.499,0.055,0.583
			c0.037,0.085,0.113,0.127,0.225,0.127c0.129,0,0.211-0.046,0.25-0.139c0.035-0.095,0.055-0.314,0.055-0.662v-5.141H106.275z"/>
		<path fill="#FFFFFF" d="M111.367,12.237h-1.887V11.72c0-0.241-0.025-0.395-0.074-0.462c-0.047-0.065-0.127-0.098-0.24-0.098
			c-0.121,0-0.215,0.044-0.277,0.134c-0.063,0.089-0.094,0.224-0.094,0.404c0,0.233,0.035,0.408,0.105,0.525
			c0.066,0.119,0.26,0.262,0.574,0.428c0.904,0.479,1.473,0.873,1.709,1.18c0.234,0.308,0.352,0.803,0.352,1.486
			c0,0.497-0.064,0.863-0.195,1.099s-0.383,0.433-0.756,0.593c-0.373,0.159-0.807,0.238-1.303,0.238
			c-0.543,0-1.008-0.092-1.391-0.275c-0.385-0.184-0.637-0.418-0.756-0.702s-0.18-0.688-0.18-1.211v-0.456h1.887v0.849
			c0,0.261,0.027,0.429,0.08,0.504c0.053,0.074,0.146,0.111,0.283,0.111c0.135,0,0.234-0.047,0.301-0.142s0.1-0.235,0.1-0.422
			c0-0.411-0.063-0.68-0.189-0.806c-0.129-0.127-0.445-0.338-0.949-0.634c-0.506-0.299-0.84-0.516-1.004-0.65
			s-0.301-0.321-0.408-0.561c-0.107-0.238-0.162-0.542-0.162-0.913c0-0.533,0.076-0.926,0.23-1.172
			c0.152-0.247,0.398-0.44,0.74-0.579c0.34-0.141,0.752-0.209,1.236-0.209c0.525,0,0.977,0.076,1.348,0.229
			c0.371,0.151,0.617,0.344,0.738,0.574c0.121,0.231,0.182,0.625,0.182,1.179V12.237z"/>
		<path fill="#FFFFFF" d="M116.264,10.125v1.396h-1.207v5.579h-2.031v-5.579h-1.201v-1.396H116.264z"/>
		<path fill="#FFFFFF" d="M116.727,10.125h1.439c0.957,0,1.607,0.033,1.947,0.1c0.338,0.065,0.615,0.234,0.83,0.506
			c0.213,0.272,0.32,0.704,0.32,1.3c0,0.543-0.076,0.908-0.227,1.095c-0.15,0.186-0.449,0.298-0.893,0.336
			c0.402,0.088,0.672,0.207,0.811,0.356c0.139,0.15,0.223,0.286,0.258,0.412c0.033,0.125,0.051,0.469,0.051,1.031v1.84h-1.887
			v-2.317c0-0.374-0.033-0.604-0.1-0.693c-0.066-0.09-0.238-0.134-0.518-0.134v3.145h-2.033V10.125z M118.76,11.319v1.551
			c0.229,0,0.389-0.028,0.479-0.084c0.092-0.057,0.139-0.237,0.139-0.545v-0.384c0-0.221-0.045-0.366-0.133-0.436
			C119.156,11.354,118.994,11.319,118.76,11.319z"/>
		<path fill="#FFFFFF" d="M124.082,10.125v6.976h-2.033v-6.976H124.082z"/>
		<path fill="#FFFFFF" d="M128.408,10.125l1.162,6.976h-2.076l-0.109-1.253h-0.727l-0.121,1.253h-2.102l1.037-6.976H128.408z
			 M127.332,14.611c-0.104-0.791-0.205-1.768-0.311-2.931c-0.205,1.336-0.336,2.312-0.389,2.931H127.332z"/>
		<path fill="#FFFFFF" d="M131.947,10.125v5.58h1.234v1.396h-3.266v-6.976H131.947z"/>
		<path fill="#FFFFFF" d="M92.088,19.878v1.396h-1.205v5.579h-2.031v-5.579h-1.203v-1.396H92.088z"/>
		<path fill="#FFFFFF" d="M92.553,19.878h3.387v1.396h-1.357v1.322h1.27v1.327h-1.27v1.534h1.492v1.396h-3.521V19.878z"/>
		<path fill="#FFFFFF" d="M101.402,22.915h-2.031v-1.212c0-0.353-0.023-0.572-0.066-0.66c-0.043-0.087-0.139-0.131-0.287-0.131
			c-0.166,0-0.273,0.053-0.318,0.16c-0.045,0.105-0.066,0.336-0.066,0.689v3.239c0,0.339,0.021,0.56,0.066,0.663
			c0.045,0.104,0.146,0.156,0.305,0.156c0.15,0,0.25-0.053,0.297-0.156c0.045-0.104,0.07-0.348,0.07-0.73v-0.877h2.031v0.272
			c0,0.722-0.059,1.234-0.172,1.536c-0.115,0.303-0.367,0.566-0.758,0.794S99.6,27,99.027,27c-0.596,0-1.086-0.096-1.473-0.289
			c-0.385-0.192-0.641-0.459-0.766-0.799c-0.127-0.341-0.189-0.853-0.189-1.536v-2.038c0-0.503,0.02-0.879,0.059-1.131
			c0.039-0.251,0.152-0.493,0.346-0.726c0.191-0.232,0.457-0.416,0.795-0.549c0.34-0.134,0.73-0.201,1.172-0.201
			c0.598,0,1.092,0.104,1.48,0.311c0.389,0.206,0.645,0.464,0.768,0.771c0.121,0.309,0.184,0.788,0.184,1.439V22.915z"/>
		<path fill="#FFFFFF" d="M106.801,19.878v6.976h-2.031v-2.93h-0.607v2.93h-2.031v-6.976h2.031v2.495h0.607v-2.495H106.801z"/>
		<path fill="#FFFFFF" d="M112.152,19.878v6.976h-1.781l-1.055-3.171v3.171h-1.699v-6.976h1.699l1.139,3.142v-3.142H112.152z"/>
		<path fill="#FFFFFF" d="M117.611,23.963c0,0.701-0.02,1.196-0.057,1.488c-0.037,0.291-0.152,0.558-0.348,0.799
			c-0.195,0.242-0.457,0.427-0.787,0.556c-0.332,0.13-0.719,0.194-1.16,0.194c-0.418,0-0.793-0.062-1.125-0.184
			c-0.334-0.122-0.602-0.304-0.805-0.549c-0.203-0.244-0.324-0.51-0.361-0.797c-0.039-0.287-0.059-0.789-0.059-1.508V22.77
			c0-0.701,0.02-1.197,0.057-1.489c0.035-0.291,0.152-0.558,0.346-0.799c0.195-0.241,0.459-0.427,0.789-0.556
			c0.332-0.13,0.719-0.194,1.158-0.194c0.42,0,0.795,0.062,1.127,0.184c0.334,0.122,0.602,0.306,0.803,0.549
			c0.205,0.244,0.324,0.51,0.363,0.797s0.059,0.791,0.059,1.509V23.963z M115.578,21.67c0-0.324-0.02-0.532-0.061-0.622
			c-0.039-0.09-0.121-0.136-0.248-0.136c-0.105,0-0.188,0.037-0.244,0.11c-0.055,0.072-0.082,0.288-0.082,0.647v3.258
			c0,0.404,0.018,0.655,0.055,0.749c0.037,0.095,0.121,0.144,0.258,0.144c0.139,0,0.227-0.055,0.266-0.165
			c0.039-0.109,0.057-0.368,0.057-0.779V21.67z"/>
		<path fill="#FFFFFF" d="M120.4,19.878v5.58h1.234v1.396h-3.266v-6.976H120.4z"/>
		<path fill="#FFFFFF" d="M126.619,23.963c0,0.701-0.018,1.196-0.055,1.488c-0.037,0.291-0.152,0.558-0.348,0.799
			c-0.195,0.242-0.459,0.427-0.789,0.556c-0.332,0.13-0.717,0.194-1.158,0.194c-0.418,0-0.793-0.062-1.127-0.184
			c-0.332-0.122-0.6-0.304-0.803-0.549c-0.203-0.244-0.324-0.51-0.361-0.797c-0.039-0.287-0.059-0.789-0.059-1.508V22.77
			c0-0.701,0.018-1.197,0.057-1.489c0.035-0.291,0.15-0.558,0.346-0.799s0.457-0.427,0.789-0.556
			c0.332-0.13,0.717-0.194,1.158-0.194c0.418,0,0.795,0.062,1.127,0.184s0.6,0.306,0.803,0.549c0.203,0.244,0.324,0.51,0.361,0.797
			c0.039,0.287,0.059,0.791,0.059,1.509V23.963z M124.588,21.67c0-0.324-0.02-0.532-0.061-0.622
			c-0.039-0.09-0.123-0.136-0.248-0.136c-0.105,0-0.188,0.037-0.244,0.11c-0.055,0.072-0.084,0.288-0.084,0.647v3.258
			c0,0.404,0.02,0.655,0.055,0.749c0.037,0.095,0.123,0.144,0.26,0.144s0.227-0.055,0.264-0.165
			c0.039-0.109,0.059-0.368,0.059-0.779V21.67z"/>
		<path fill="#FFFFFF" d="M132.039,22.446h-2.031v-0.634c0-0.398-0.02-0.649-0.059-0.749c-0.039-0.101-0.131-0.151-0.275-0.151
			c-0.125,0-0.211,0.044-0.256,0.129c-0.045,0.087-0.066,0.308-0.066,0.664v3.348c0,0.313,0.021,0.519,0.066,0.618
			s0.135,0.149,0.271,0.149c0.146,0,0.248-0.057,0.301-0.168c0.053-0.112,0.08-0.331,0.08-0.656v-0.827h-0.41v-1.06h2.379v3.744
			h-1.277l-0.188-0.5c-0.139,0.216-0.313,0.378-0.523,0.485S129.59,27,129.303,27c-0.34,0-0.66-0.074-0.957-0.222
			c-0.299-0.148-0.525-0.331-0.68-0.55c-0.152-0.218-0.25-0.447-0.289-0.688c-0.039-0.239-0.059-0.599-0.059-1.079v-2.071
			c0-0.667,0.041-1.15,0.121-1.452c0.082-0.303,0.313-0.578,0.693-0.83c0.381-0.251,0.875-0.377,1.479-0.377
			c0.596,0,1.09,0.109,1.48,0.327c0.393,0.22,0.65,0.479,0.77,0.778c0.117,0.3,0.178,0.736,0.178,1.308V22.446z"/>
		<path fill="#FFFFFF" d="M134.857,19.878v6.976h-2.031v-6.976H134.857z"/>
		<path fill="#FFFFFF" d="M135.672,19.878h3.389v1.396h-1.355v1.322h1.268v1.327h-1.268v1.534h1.49v1.396h-3.523V19.878z"/>
		<path fill="#FFFFFF" d="M144.082,21.989h-1.887v-0.517c0-0.241-0.023-0.395-0.072-0.461c-0.047-0.066-0.127-0.1-0.24-0.1
			c-0.123,0-0.215,0.045-0.277,0.134c-0.063,0.09-0.094,0.224-0.094,0.405c0,0.233,0.033,0.408,0.105,0.526
			c0.066,0.117,0.258,0.26,0.574,0.426c0.904,0.479,1.473,0.873,1.707,1.181c0.236,0.307,0.354,0.803,0.354,1.486
			c0,0.496-0.066,0.863-0.195,1.099c-0.131,0.234-0.383,0.433-0.756,0.592S142.494,27,141.998,27c-0.543,0-1.008-0.092-1.391-0.275
			c-0.385-0.185-0.637-0.418-0.756-0.703c-0.119-0.284-0.18-0.688-0.18-1.21v-0.457h1.887v0.849c0,0.262,0.027,0.43,0.08,0.505
			c0.053,0.074,0.146,0.112,0.283,0.112c0.135,0,0.234-0.049,0.301-0.144c0.066-0.094,0.1-0.235,0.1-0.422
			c0-0.41-0.063-0.68-0.189-0.805c-0.129-0.127-0.445-0.339-0.949-0.634c-0.506-0.299-0.84-0.516-1.004-0.651
			c-0.164-0.135-0.301-0.321-0.408-0.56s-0.162-0.543-0.162-0.913c0-0.535,0.076-0.926,0.229-1.173
			c0.154-0.246,0.4-0.439,0.742-0.579c0.34-0.139,0.752-0.209,1.234-0.209c0.529,0,0.979,0.076,1.35,0.229
			c0.371,0.151,0.617,0.344,0.738,0.575s0.18,0.624,0.18,1.178V21.989z"/>
	</g>
	<g>
		<path fill="#FFFFFF" d="M25.559,5.119c-1.452-1.826-2.81-2.471-4.73-2.471c-8.38,0-8.612,5.439-8.612,8.66v4.043
			c0,2.61,0,8.158,5.898,8.193V7.729h11.937v16.497c-2.202,1.183-5.854,2.254-11.516,2.254C9.645,26.479,0,22.541,0,12.846
			C0,4.15,8.005,0,18.537,0c4.96,0,7.958,1.146,10.672,3.223C28.413,4.114,26.727,4.76,25.559,5.119z"/>
		<rect x="36.806" y="0.358" fill="#FFFFFF" width="11.937" height="25.764"/>
		<polygon fill="#FFFFFF" points="82.358,0.358 82.358,3.329 73.464,3.329 73.464,26.122 61.527,26.122 61.527,3.329 52.633,3.329 
			52.633,0.358 		"/>
	</g>
</g>
</svg>
