<?xml version="1.0" encoding="utf-8"?>
<!-- Generator: Adobe Illustrator 15.1.0, SVG Export Plug-In . SVG Version: 6.00 Build 0)  -->
<!DOCTYPE svg PUBLIC "-//W3C//DTD SVG 1.1//EN" "http://www.w3.org/Graphics/SVG/1.1/DTD/svg11.dtd">
<svg version="1.1" id="Layer_1" xmlns="http://www.w3.org/2000/svg" xmlns:xlink="http://www.w3.org/1999/xlink" x="0px" y="0px"
	 width="143.102px" height="42.52px" viewBox="0 0 143.102 42.52" enable-background="new 0 0 143.102 42.52" xml:space="preserve">
<g>
	<path fill="#272E3A" d="M106.181,14.665c0-7.729-6.287-14.019-14.016-14.019H75.36l-0.003,40.878h8.476l0.004-32.403h8.328
		c3.057,0,5.541,2.486,5.541,5.544c0,3.032-2.498,5.5-5.566,5.5l-8.156-0.007l5.938,7.719l0.266,0.005c0,0,0.883,0.013,1.961,0.013
		c1.854,0,3.076-0.038,3.633-0.112C101.71,26.998,106.181,21.359,106.181,14.665z"/>
	<rect x="59.611" y="0.646" fill="#272E3A" width="8.476" height="40.878"/>
	<path fill="#272E3A" d="M139.026,22.184l-0.23-0.186l-17.012-8.432c-0.621-0.515-1.053-1.322-1.053-1.981
		c0-1.337,1.086-2.424,2.422-2.424l12.188-0.003l3.365-8.478l-15.553,0.006c-6.01,0-10.898,4.889-10.898,10.898
		c0,3.423,1.795,6.849,4.684,8.942l16.918,8.388c0.514,0.48,0.766,1.004,0.766,1.6c0,1.353-1.158,2.538-2.48,2.538l-38.51-0.003
		l6.734,8.475l31.775,0.006c6.043,0,10.961-4.941,10.961-11.016C143.103,27.288,141.655,24.33,139.026,22.184z"/>
	<path fill="#272E3A" d="M36.553,35.636c-0.531-0.285-1.13-0.437-1.73-0.437c-0.315,0-0.623,0.044-0.919,0.121l-6.449-9.684
		c0.432-0.401,0.81-0.867,1.099-1.403c1.223-2.272,0.647-5.032-1.221-6.663l5.555-10.322c0.188,0.03,0.375,0.071,0.566,0.071
		c1.35,0,2.585-0.738,3.225-1.926c0.464-0.86,0.563-1.851,0.282-2.786c-0.281-0.937-0.91-1.707-1.771-2.17
		C34.657,0.151,34.058,0,33.458,0c-1.35,0-2.585,0.738-3.224,1.925c-0.463,0.86-0.564,1.85-0.283,2.786
		c0.161,0.538,0.448,1.011,0.816,1.413l-5.546,10.308c-0.472-0.132-0.958-0.206-1.448-0.206c-2.005,0-3.84,1.097-4.788,2.86
		c-0.292,0.543-0.458,1.116-0.553,1.693L7.108,20.785c-0.3-0.87-0.897-1.591-1.712-2.029c-0.531-0.286-1.13-0.438-1.731-0.438
		c-1.351,0-2.586,0.739-3.226,1.928c-0.464,0.859-0.563,1.85-0.282,2.786c0.281,0.936,0.91,1.706,1.771,2.17
		c0.532,0.285,1.131,0.437,1.731,0.437c1.35,0,2.585-0.737,3.224-1.925c0.092-0.171,0.158-0.35,0.222-0.528L18.56,23.18
		c0.394,1.35,1.302,2.548,2.634,3.267c0.79,0.424,1.679,0.648,2.57,0.648c0.556,0,1.096-0.093,1.611-0.252l6.531,9.808
		c-0.113,0.15-0.219,0.307-0.31,0.476c-0.955,1.774-0.288,3.998,1.488,4.956c0.531,0.286,1.131,0.438,1.731,0.438
		c1.351,0,2.586-0.738,3.225-1.926c0.463-0.86,0.563-1.851,0.282-2.786C38.043,36.871,37.415,36.1,36.553,35.636z M4.771,22.576
		c-0.22,0.409-0.646,0.663-1.111,0.663c-0.208,0-0.409-0.051-0.595-0.15c-0.297-0.16-0.514-0.426-0.61-0.748
		s-0.063-0.662,0.097-0.957c0.221-0.411,0.647-0.666,1.113-0.666c0.209,0,0.409,0.051,0.595,0.151
		c0.296,0.159,0.513,0.425,0.609,0.747S4.931,22.279,4.771,22.576z M32.347,3.062c0.22-0.408,0.645-0.662,1.11-0.662
		c0.209,0,0.408,0.051,0.595,0.15c0.296,0.16,0.513,0.425,0.609,0.748c0.097,0.322,0.063,0.662-0.097,0.958
		c-0.221,0.41-0.646,0.664-1.112,0.664c-0.209,0-0.409-0.051-0.594-0.15c-0.297-0.159-0.514-0.425-0.61-0.748
		C32.152,3.699,32.187,3.358,32.347,3.062z M35.928,39.458c-0.22,0.408-0.646,0.662-1.111,0.662c-0.208,0-0.408-0.051-0.594-0.15
		c-0.612-0.33-0.843-1.097-0.514-1.707c0.221-0.409,0.647-0.664,1.113-0.664c0.208,0,0.408,0.051,0.594,0.15
		c0.297,0.16,0.513,0.425,0.609,0.748C36.123,38.819,36.088,39.16,35.928,39.458z"/>
	<path fill="#272E3A" d="M11.469,7.584C12,7.87,12.599,8.021,13.2,8.021c1.35,0,2.586-0.738,3.227-1.927
		c0.955-1.774,0.288-3.997-1.489-4.956c-0.531-0.286-1.131-0.437-1.731-0.437c-1.35,0-2.585,0.737-3.225,1.925
		C9.025,4.404,9.693,6.628,11.469,7.584z M12.093,3.764c0.221-0.409,0.646-0.663,1.112-0.663c0.209,0,0.409,0.051,0.594,0.15
		c0.612,0.331,0.843,1.096,0.515,1.706c-0.221,0.41-0.648,0.665-1.114,0.665c-0.208,0-0.408-0.051-0.594-0.15
		C11.995,5.143,11.764,4.376,12.093,3.764z"/>
	<path fill="#272E3A" d="M45.408,18.438C44.876,18.151,44.277,18,43.675,18c-1.35,0-2.585,0.738-3.223,1.925
		c-0.464,0.861-0.564,1.852-0.283,2.788c0.28,0.936,0.909,1.707,1.771,2.17c0.531,0.286,1.13,0.438,1.73,0.438
		c1.35,0,2.586-0.738,3.227-1.928C47.852,21.616,47.183,19.394,45.408,18.438z M44.785,22.256c-0.222,0.41-0.648,0.665-1.114,0.665
		c-0.208,0-0.408-0.051-0.594-0.15c-0.296-0.159-0.513-0.425-0.609-0.747c-0.097-0.323-0.063-0.664,0.099-0.962
		c0.219-0.408,0.645-0.662,1.109-0.662c0.209,0,0.409,0.051,0.596,0.151C44.882,20.88,45.113,21.646,44.785,22.256z"/>
	<path fill="#272E3A" d="M16.276,35.587c-0.532-0.286-1.132-0.438-1.733-0.438c-1.35,0-2.584,0.738-3.223,1.926
		c-0.464,0.86-0.564,1.851-0.283,2.786c0.281,0.937,0.91,1.707,1.771,2.171c0.531,0.286,1.13,0.437,1.731,0.437
		c1.351,0,2.586-0.738,3.225-1.926C18.719,38.766,18.051,36.543,16.276,35.587z M15.651,39.405c-0.22,0.409-0.646,0.664-1.112,0.664
		c-0.208,0-0.408-0.051-0.595-0.151c-0.296-0.159-0.513-0.425-0.609-0.747s-0.063-0.663,0.098-0.96
		c0.22-0.409,0.646-0.663,1.11-0.663c0.209,0,0.409,0.051,0.596,0.151C15.75,38.029,15.98,38.794,15.651,39.405z"/>
</g>
</svg>
