<?xml version="1.0" encoding="utf-8"?>
<!-- Generator: Adobe Illustrator 15.1.0, SVG Export Plug-In . SVG Version: 6.00 Build 0)  -->
<!DOCTYPE svg PUBLIC "-//W3C//DTD SVG 1.1//EN" "http://www.w3.org/Graphics/SVG/1.1/DTD/svg11.dtd">
<svg version="1.1" id="Layer_1" xmlns="http://www.w3.org/2000/svg" xmlns:xlink="http://www.w3.org/1999/xlink" x="0px" y="0px"
	 width="16.918px" height="23.598px" viewBox="0 0 16.918 23.598" enable-background="new 0 0 16.918 23.598" xml:space="preserve">
<g>
	<path fill="#303743" d="M16.676,11.152L12.792,7.1c-0.334-0.349-0.889-0.359-1.237-0.025s-0.36,0.889-0.026,1.236l2.467,2.571
		H6.942c-0.483,0-0.875,0.392-0.875,0.875s0.392,0.875,0.875,0.875h7.061l-2.478,2.6c-0.333,0.351-0.319,0.904,0.03,1.237
		c0.169,0.161,0.387,0.241,0.604,0.241c0.23,0,0.463-0.091,0.635-0.271l3.885-4.079C17,12.022,16.999,11.49,16.676,11.152z"/>
	<path fill="#303743" d="M9.616,21.848H3.547c-0.991,0-1.797-0.806-1.797-1.797V3.547c0-0.991,0.806-1.797,1.797-1.797h6.069
		c0.482,0,0.875-0.393,0.875-0.875C10.491,0.392,10.099,0,9.616,0H3.547C1.591,0,0,1.591,0,3.547v16.504
		c0,1.956,1.591,3.547,3.547,3.547h6.069c0.482,0,0.875-0.392,0.875-0.875C10.491,22.24,10.099,21.848,9.616,21.848z"/>
</g>
</svg>
