<?xml version="1.0" encoding="utf-8"?>
<!-- Generator: Adobe Illustrator 24.1.2, SVG Export Plug-In . SVG Version: 6.00 Build 0)  -->
<svg version="1.1" id="Layer_1" xmlns="http://www.w3.org/2000/svg" xmlns:xlink="http://www.w3.org/1999/xlink" x="0px" y="0px"
	 viewBox="0 0 12.9 18" style="enable-background:new 0 0 12.9 18;" xml:space="preserve">
<style type="text/css">
	.st0{fill:#303743;}
</style>
<g>
	<path class="st0" d="M12.7,8.5l-3-3.1c-0.3-0.3-0.7-0.3-0.9,0c-0.3,0.3-0.3,0.7,0,0.9l1.9,2H5.3C4.9,8.3,4.6,8.6,4.6,9
		c0,0.4,0.3,0.7,0.7,0.7h5.4l-1.9,2c-0.3,0.3-0.2,0.7,0,0.9c0.1,0.1,0.3,0.2,0.5,0.2c0.2,0,0.4-0.1,0.5-0.2l3-3.1
		C13,9.2,13,8.8,12.7,8.5z"/>
	<path class="st0" d="M7.3,16.7H2.7c-0.8,0-1.4-0.6-1.4-1.4V2.7c0-0.8,0.6-1.4,1.4-1.4h4.6C7.7,1.3,8,1,8,0.7S7.7,0,7.3,0H2.7
		C1.2,0,0,1.2,0,2.7v12.6C0,16.8,1.2,18,2.7,18h4.6C7.7,18,8,17.7,8,17.3C8,17,7.7,16.7,7.3,16.7z"/>
</g>
</svg>
