<?xml version="1.0" encoding="utf-8"?>
<!-- Generator: Adobe Illustrator 24.1.2, SVG Export Plug-In . SVG Version: 6.00 Build 0)  -->
<svg version="1.1" id="Layer_1" xmlns="http://www.w3.org/2000/svg" xmlns:xlink="http://www.w3.org/1999/xlink" x="0px" y="0px"
	 viewBox="0 0 12 14.4" style="enable-background:new 0 0 12 14.4;" xml:space="preserve">
<style type="text/css">
	.st0{fill:#68707C;}
</style>
<path class="st0" d="M2,2l8,5.6l-8,4.8V2 M2,0C1.7,0,1.4,0.1,1.1,0.2C0.4,0.6,0,1.3,0,2v10.4c0,0.7,0.4,1.4,1,1.7
	c0.3,0.2,0.6,0.3,1,0.3c0.4,0,0.7-0.1,1-0.3l8-4.8c0.6-0.3,0.9-1,1-1.6C12,7,11.7,6.4,11.2,6l-8-5.6C2.8,0.1,2.4,0,2,0L2,0z"/>
</svg>
