<?xml version="1.0" encoding="utf-8"?>
<!-- Generator: Adobe Illustrator 15.1.0, SVG Export Plug-In . SVG Version: 6.00 Build 0)  -->
<!DOCTYPE svg PUBLIC "-//W3C//DTD SVG 1.1//EN" "http://www.w3.org/Graphics/SVG/1.1/DTD/svg11.dtd">
<svg version="1.1" id="Layer_1" xmlns="http://www.w3.org/2000/svg" xmlns:xlink="http://www.w3.org/1999/xlink" x="0px" y="0px"
	 width="18.676px" height="19.199px" viewBox="0 0 18.676 19.199" enable-background="new 0 0 18.676 19.199" xml:space="preserve">
<g>
	<path fill="#AAB1BC" d="M11.129,19.199H7.57c-0.547,0-1.009-0.383-1.125-0.933l-0.288-2.02c-0.326-0.157-0.646-0.344-0.964-0.563
		l-1.858,0.748c-0.169,0.055-0.292,0.074-0.415,0.074c-0.421,0-0.805-0.228-1.003-0.594l-1.771-3.063
		c-0.276-0.496-0.152-1.12,0.285-1.462l1.573-1.225C1.988,9.982,1.981,9.793,1.981,9.6c0-0.177,0.01-0.366,0.034-0.57L0.451,7.812
		c-0.446-0.314-0.58-0.949-0.288-1.46L1.935,3.27c0.252-0.467,0.864-0.699,1.386-0.511l1.882,0.756
		c0.318-0.219,0.641-0.407,0.963-0.563l0.278-1.975C6.543,0.403,7.015,0,7.57,0h3.559c0.561,0,1.035,0.403,1.131,0.959l0.282,1.993
		c0.327,0.157,0.646,0.343,0.964,0.563l1.86-0.748c0.166-0.055,0.288-0.074,0.413-0.074c0.42,0,0.805,0.228,1.002,0.592l1.771,3.064
		c0.275,0.496,0.152,1.12-0.285,1.461l-1.571,1.225c0.016,0.179,0.022,0.368,0.022,0.564c0,0.192-0.006,0.377-0.021,0.561
		l1.563,1.229c0.44,0.326,0.567,0.942,0.289,1.449l-1.786,3.091c-0.19,0.352-0.574,0.58-0.991,0.58l0,0
		c-0.134,0-0.268-0.023-0.396-0.07l-1.879-0.755c-0.311,0.216-0.634,0.403-0.966,0.563l-0.279,1.974
		C12.181,18.785,11.708,19.199,11.129,19.199z M7.783,17.808h3.125l0.302-2.137c0.035-0.246,0.197-0.453,0.426-0.547
		c0.469-0.19,0.919-0.452,1.339-0.778c0.194-0.15,0.457-0.188,0.685-0.096l2.005,0.807l1.564-2.71l-1.69-1.329
		c-0.193-0.152-0.291-0.394-0.259-0.637c0.032-0.249,0.05-0.506,0.05-0.781c0-0.28-0.021-0.535-0.058-0.757
		c-0.041-0.252,0.06-0.506,0.26-0.663l1.706-1.329l-1.565-2.708l-2.003,0.806c-0.227,0.09-0.485,0.056-0.68-0.091
		c-0.448-0.341-0.888-0.596-1.344-0.783c-0.229-0.093-0.392-0.301-0.426-0.546l-0.302-2.137H7.791L7.489,3.529
		C7.454,3.773,7.292,3.982,7.062,4.075C6.619,4.256,6.167,4.521,5.717,4.859c-0.194,0.146-0.452,0.18-0.677,0.09L3.036,4.143
		L1.479,6.851l1.708,1.328c0.203,0.157,0.302,0.413,0.258,0.666C3.396,9.135,3.371,9.389,3.371,9.6c0,0.276,0.02,0.538,0.056,0.757
		c0.042,0.252-0.058,0.506-0.258,0.664l-1.706,1.328l1.564,2.708l2.004-0.807c0.227-0.09,0.485-0.056,0.679,0.092
		c0.447,0.341,0.887,0.596,1.343,0.782c0.23,0.094,0.392,0.301,0.427,0.547L7.783,17.808z M9.35,13.635
		c-2.224,0-4.032-1.812-4.032-4.035c0-2.225,1.808-4.034,4.032-4.034s4.031,1.81,4.031,4.034
		C13.381,11.823,11.573,13.635,9.35,13.635z M9.35,6.957c-1.457,0-2.641,1.185-2.641,2.643c0,1.458,1.185,2.644,2.641,2.644
		c1.456,0,2.642-1.186,2.642-2.644C11.991,8.142,10.806,6.957,9.35,6.957z"/>
</g>
</svg>
