<?xml version="1.0" encoding="utf-8"?>
<!-- Generator: Adobe Illustrator 15.1.0, SVG Export Plug-In . SVG Version: 6.00 Build 0)  -->
<!DOCTYPE svg PUBLIC "-//W3C//DTD SVG 1.1//EN" "http://www.w3.org/Graphics/SVG/1.1/DTD/svg11.dtd">
<svg version="1.1" id="Layer_1" xmlns="http://www.w3.org/2000/svg" xmlns:xlink="http://www.w3.org/1999/xlink" x="0px" y="0px"
	 width="127.892px" height="37.955px" viewBox="0 0 127.892 37.955" enable-background="new 0 0 127.892 37.955"
	 xml:space="preserve">
<g>
	<g>
		<g>
			<path fill="#FFFFFF" d="M94.894,13.106c0-6.908-5.618-12.527-12.524-12.527H67.349L67.348,37.11h7.575l0.003-28.959h7.444
				c2.729,0,4.951,2.223,4.951,4.955c0,2.71-2.233,4.916-4.976,4.916l-7.289-0.005l5.306,6.898l0.238,0.002
				c0,0,0.788,0.013,1.752,0.013c1.657,0,2.75-0.033,3.247-0.1C90.898,24.128,94.894,19.088,94.894,13.106z"/>
		</g>
		<g>
			<rect x="53.275" y="0.579" fill="#FFFFFF" width="7.575" height="36.532"/>
		</g>
		<g>
			<path fill="#FFFFFF" d="M124.249,19.825l-0.206-0.165l-15.204-7.535c-0.556-0.46-0.942-1.182-0.942-1.771
				c0-1.195,0.971-2.167,2.164-2.167l10.894-0.002l3.007-7.577l-13.901,0.005c-5.37,0-9.738,4.37-9.738,9.741
				c0,3.059,1.604,6.121,4.185,7.992l15.119,7.496c0.46,0.428,0.685,0.896,0.685,1.429c0,1.208-1.036,2.268-2.217,2.268
				L83.68,29.536l6.019,7.575l28.396,0.006c5.4,0,9.796-4.417,9.796-9.845C127.892,24.387,126.599,21.743,124.249,19.825z"/>
		</g>
	</g>
	<g>
		<path fill="#FFFFFF" d="M32.667,31.847c-0.475-0.255-1.009-0.389-1.546-0.389c-0.282,0-0.558,0.037-0.823,0.106l-5.758-8.645
			c0.387-0.357,0.719-0.783,0.978-1.262c1.093-2.033,0.583-4.502-1.089-5.959l4.952-9.203c0.171,0.028,0.343,0.047,0.516,0.047
			c1.206,0,2.31-0.66,2.882-1.722c0.414-0.769,0.503-1.653,0.252-2.49c-0.251-0.837-0.813-1.525-1.583-1.939
			C30.974,0.135,30.438,0,29.901,0c-1.206,0-2.31,0.66-2.88,1.72c-0.415,0.769-0.505,1.653-0.254,2.49
			c0.144,0.482,0.395,0.912,0.725,1.271l-4.95,9.2c-0.422-0.117-0.858-0.18-1.295-0.18c-1.792,0-3.432,0.979-4.28,2.555
			c-0.261,0.486-0.426,0.998-0.51,1.515L6.36,18.576c-0.269-0.778-0.808-1.42-1.538-1.813c-0.475-0.255-1.01-0.391-1.548-0.391
			c-1.207,0-2.311,0.661-2.883,1.723c-0.415,0.768-0.503,1.652-0.251,2.49c0.251,0.835,0.813,1.525,1.583,1.938
			c0.475,0.256,1.01,0.391,1.547,0.391c1.206,0,2.31-0.659,2.881-1.72c0.082-0.153,0.148-0.312,0.205-0.474l10.229-0.004
			c0.351,1.207,1.165,2.279,2.355,2.92c0.707,0.38,1.5,0.58,2.297,0.58c0.497,0,0.983-0.079,1.443-0.221l5.833,8.759
			c-0.102,0.133-0.194,0.275-0.275,0.425c-0.854,1.587-0.258,3.574,1.33,4.43C30.044,37.865,30.58,38,31.116,38
			c1.208,0,2.312-0.661,2.882-1.722c0.414-0.77,0.503-1.654,0.252-2.491C34,32.952,33.438,32.263,32.667,31.847z M4.264,20.176
			c-0.196,0.367-0.577,0.594-0.992,0.594c-0.187,0-0.366-0.046-0.533-0.136c-0.265-0.142-0.458-0.379-0.545-0.668
			c-0.086-0.287-0.056-0.591,0.087-0.855c0.196-0.367,0.578-0.594,0.994-0.594c0.187,0,0.366,0.044,0.532,0.133
			c0.265,0.142,0.459,0.38,0.544,0.668C4.438,19.605,4.407,19.912,4.264,20.176z M28.908,2.736c0.197-0.365,0.577-0.591,0.993-0.591
			c0.187,0,0.366,0.045,0.532,0.134c0.265,0.142,0.459,0.38,0.545,0.668c0.086,0.289,0.056,0.593-0.086,0.857
			c-0.197,0.366-0.579,0.594-0.995,0.594c-0.187,0-0.366-0.045-0.531-0.134c-0.266-0.143-0.458-0.38-0.545-0.668
			C28.734,3.306,28.766,3.001,28.908,2.736z M32.109,35.263c-0.196,0.365-0.577,0.592-0.993,0.592c-0.186,0-0.365-0.044-0.531-0.133
			c-0.547-0.296-0.753-0.98-0.458-1.526c0.197-0.366,0.577-0.594,0.995-0.594c0.186,0,0.365,0.046,0.531,0.136
			c0.265,0.143,0.458,0.378,0.544,0.668C32.284,34.692,32.252,34.997,32.109,35.263z"/>
		<path fill="#FFFFFF" d="M10.251,6.779c0.474,0.254,1.01,0.39,1.545,0.39c1.207,0,2.312-0.66,2.884-1.722
			c0.854-1.586,0.257-3.573-1.331-4.429c-0.475-0.256-1.011-0.391-1.547-0.391c-1.207,0-2.311,0.66-2.882,1.721
			C8.066,3.937,8.663,5.924,10.251,6.779z M10.808,3.364c0.197-0.365,0.577-0.592,0.994-0.592c0.186,0,0.365,0.045,0.531,0.134
			c0.547,0.294,0.753,0.979,0.46,1.524c-0.198,0.367-0.58,0.594-0.997,0.594c-0.186,0-0.364-0.045-0.53-0.134
			C10.719,4.596,10.515,3.911,10.808,3.364z"/>
		<path fill="#FFFFFF" d="M40.581,16.478c-0.475-0.256-1.011-0.391-1.548-0.391c-1.208,0-2.311,0.66-2.881,1.721
			c-0.414,0.77-0.503,1.654-0.253,2.49c0.251,0.836,0.813,1.526,1.583,1.939c0.475,0.256,1.01,0.392,1.546,0.392
			c1.208,0,2.312-0.66,2.885-1.722C42.765,19.318,42.169,17.331,40.581,16.478z M40.024,19.891
			c-0.197,0.365-0.579,0.594-0.997,0.594c-0.186,0-0.364-0.045-0.529-0.135c-0.266-0.143-0.459-0.38-0.546-0.668
			c-0.087-0.288-0.055-0.593,0.088-0.86c0.196-0.364,0.577-0.59,0.992-0.59c0.186,0,0.365,0.045,0.532,0.135
			C40.111,18.66,40.318,19.345,40.024,19.891z"/>
		<path fill="#FFFFFF" d="M14.546,31.804c-0.476-0.256-1.012-0.391-1.549-0.391c-1.206,0-2.31,0.658-2.881,1.72
			c-0.414,0.77-0.503,1.654-0.253,2.492c0.251,0.837,0.813,1.525,1.583,1.938c0.475,0.258,1.01,0.393,1.547,0.393
			c1.207,0,2.311-0.66,2.882-1.722C16.729,34.646,16.133,32.66,14.546,31.804z M13.987,35.217c-0.196,0.364-0.577,0.593-0.993,0.593
			c-0.187,0-0.365-0.045-0.532-0.135c-0.264-0.144-0.458-0.379-0.544-0.667c-0.087-0.288-0.056-0.594,0.087-0.859
			c0.197-0.366,0.577-0.594,0.993-0.594c0.186,0,0.365,0.046,0.532,0.138C14.076,33.986,14.282,34.67,13.987,35.217z"/>
	</g>
</g>
</svg>
