<?xml version="1.0" encoding="utf-8"?>
<!-- Generator: Adobe Illustrator 15.1.0, SVG Export Plug-In . SVG Version: 6.00 Build 0)  -->
<!DOCTYPE svg PUBLIC "-//W3C//DTD SVG 1.1//EN" "http://www.w3.org/Graphics/SVG/1.1/DTD/svg11.dtd">
<svg version="1.1" id="Layer_1" xmlns="http://www.w3.org/2000/svg" xmlns:xlink="http://www.w3.org/1999/xlink" x="0px" y="0px"
	 width="100.967px" height="30px" viewBox="0 0 100.967 30" enable-background="new 0 0 100.967 30" xml:space="preserve">
<g>
	<g>
		<g>
			<path fill="#FFFFFF" d="M74.916,10.347c0-5.454-4.435-9.89-9.888-9.89H53.17l-0.001,28.841h5.98l0.003-22.863h5.876
				c2.155,0,3.909,1.755,3.909,3.912c0,2.14-1.763,3.881-3.928,3.881l-5.754-0.004l4.189,5.446l0.188,0.002
				c0,0,0.622,0.01,1.384,0.01c1.308,0,2.17-0.026,2.563-0.079C71.762,19.049,74.916,15.069,74.916,10.347z"/>
		</g>
		<g>
			<rect x="42.059" y="0.457" fill="#FFFFFF" width="5.98" height="28.841"/>
		</g>
		<g>
			<path fill="#FFFFFF" d="M98.091,15.651l-0.163-0.131L85.926,9.572c-0.439-0.363-0.743-0.933-0.743-1.398
				c0-0.943,0.767-1.711,1.708-1.711l8.6-0.001l2.374-5.982L86.891,0.484c-4.24,0-7.688,3.45-7.688,7.69
				c0,2.415,1.266,4.832,3.304,6.309l11.936,5.918c0.363,0.338,0.541,0.708,0.541,1.128c0,0.954-0.818,1.791-1.75,1.791
				l-27.17-0.002l4.752,5.98l22.418,0.004c4.264,0,7.733-3.486,7.733-7.772C100.967,19.253,99.946,17.166,98.091,15.651z"/>
		</g>
	</g>
	<g>
		<path fill="#FFFFFF" d="M25.79,25.143c-0.375-0.202-0.797-0.307-1.221-0.307c-0.223,0-0.44,0.029-0.649,0.083l-4.545-6.825
			c0.305-0.282,0.567-0.618,0.771-0.996c0.863-1.604,0.46-3.554-0.86-4.704l3.91-7.266c0.135,0.021,0.271,0.037,0.407,0.037
			c0.952,0,1.824-0.521,2.276-1.359c0.327-0.607,0.397-1.305,0.199-1.966c-0.198-0.661-0.642-1.204-1.25-1.531
			C24.453,0.106,24.03,0,23.606,0c-0.952,0-1.824,0.521-2.274,1.358c-0.327,0.607-0.398,1.305-0.2,1.966
			c0.114,0.38,0.312,0.72,0.572,1.004l-3.908,7.263c-0.333-0.092-0.677-0.142-1.022-0.142c-1.415,0-2.709,0.773-3.378,2.018
			c-0.207,0.384-0.336,0.788-0.403,1.196l-7.97,0.003c-0.212-0.615-0.638-1.122-1.214-1.432c-0.375-0.202-0.797-0.309-1.222-0.309
			c-0.953,0-1.825,0.521-2.276,1.36c-0.327,0.606-0.397,1.305-0.199,1.966c0.198,0.66,0.642,1.204,1.25,1.53
			c0.375,0.202,0.798,0.308,1.222,0.308c0.952,0,1.824-0.52,2.274-1.358c0.065-0.121,0.117-0.246,0.162-0.374l8.075-0.003
			c0.277,0.953,0.92,1.799,1.86,2.305c0.557,0.3,1.184,0.458,1.813,0.458c0.393,0,0.776-0.062,1.139-0.174l4.605,6.915
			c-0.081,0.105-0.154,0.218-0.218,0.336c-0.674,1.253-0.203,2.821,1.05,3.497c0.375,0.203,0.798,0.31,1.222,0.31
			c0.953,0,1.825-0.521,2.275-1.359c0.327-0.607,0.397-1.306,0.199-1.967C26.842,26.015,26.398,25.471,25.79,25.143z M3.366,15.928
			c-0.155,0.29-0.456,0.469-0.784,0.469c-0.147,0-0.289-0.037-0.42-0.107c-0.209-0.112-0.362-0.3-0.43-0.527
			c-0.068-0.227-0.044-0.467,0.068-0.676c0.155-0.29,0.457-0.469,0.785-0.469c0.147,0,0.289,0.035,0.42,0.105
			c0.209,0.112,0.362,0.3,0.43,0.527C3.503,15.478,3.479,15.72,3.366,15.928z M22.822,2.16c0.155-0.288,0.456-0.467,0.784-0.467
			c0.147,0,0.289,0.036,0.42,0.106c0.209,0.112,0.362,0.3,0.43,0.527s0.044,0.468-0.068,0.676c-0.155,0.289-0.457,0.469-0.785,0.469
			c-0.147,0-0.289-0.036-0.419-0.106c-0.209-0.113-0.362-0.3-0.43-0.528C22.685,2.61,22.709,2.37,22.822,2.16z M25.349,27.839
			c-0.155,0.288-0.455,0.468-0.784,0.468c-0.147,0-0.288-0.035-0.419-0.105c-0.432-0.233-0.595-0.773-0.362-1.205
			c0.155-0.289,0.456-0.469,0.785-0.469c0.147,0,0.288,0.037,0.419,0.107c0.209,0.112,0.362,0.299,0.43,0.527
			C25.487,27.389,25.462,27.629,25.349,27.839z"/>
		<path fill="#FFFFFF" d="M8.093,5.352C8.467,5.553,8.89,5.66,9.313,5.66c0.953,0,1.825-0.521,2.277-1.359
			c0.674-1.252,0.203-2.82-1.051-3.497c-0.375-0.202-0.798-0.309-1.222-0.309c-0.953,0-1.824,0.521-2.275,1.358
			C6.368,3.108,6.839,4.677,8.093,5.352z M8.533,2.656c0.155-0.289,0.456-0.468,0.785-0.468c0.147,0,0.289,0.036,0.419,0.106
			c0.432,0.233,0.595,0.773,0.363,1.204c-0.156,0.29-0.458,0.469-0.787,0.469c-0.146,0-0.288-0.036-0.418-0.106
			C8.462,3.628,8.301,3.087,8.533,2.656z"/>
		<path fill="#FFFFFF" d="M32.038,13.009c-0.375-0.202-0.798-0.309-1.222-0.309c-0.953,0-1.824,0.521-2.274,1.358
			c-0.327,0.608-0.398,1.306-0.2,1.966c0.198,0.661,0.642,1.205,1.249,1.531c0.375,0.202,0.797,0.309,1.221,0.309
			c0.953,0,1.825-0.521,2.277-1.359C33.762,15.251,33.291,13.683,32.038,13.009z M31.598,15.703
			c-0.156,0.288-0.457,0.469-0.787,0.469c-0.146,0-0.288-0.036-0.418-0.106c-0.209-0.113-0.362-0.3-0.431-0.527
			c-0.068-0.228-0.043-0.468,0.069-0.679c0.155-0.288,0.455-0.466,0.783-0.466c0.147,0,0.289,0.036,0.42,0.107
			C31.667,14.731,31.83,15.272,31.598,15.703z"/>
		<path fill="#FFFFFF" d="M11.484,25.108c-0.376-0.203-0.799-0.309-1.223-0.309c-0.952,0-1.824,0.52-2.274,1.358
			c-0.327,0.607-0.397,1.306-0.2,1.967c0.198,0.661,0.642,1.204,1.25,1.53c0.375,0.203,0.797,0.31,1.222,0.31
			c0.953,0,1.825-0.521,2.275-1.359C13.208,27.352,12.736,25.784,11.484,25.108z M11.042,27.803
			c-0.155,0.288-0.456,0.468-0.785,0.468c-0.147,0-0.288-0.035-0.42-0.106c-0.208-0.113-0.361-0.299-0.43-0.526
			s-0.044-0.469,0.069-0.678c0.155-0.289,0.456-0.469,0.784-0.469c0.147,0,0.289,0.036,0.42,0.108
			C11.112,26.831,11.275,27.371,11.042,27.803z"/>
	</g>
</g>
</svg>
