<?xml version="1.0" encoding="utf-8"?>
<!-- Generator: Adobe Illustrator 15.1.0, SVG Export Plug-In . SVG Version: 6.00 Build 0)  -->
<!DOCTYPE svg PUBLIC "-//W3C//DTD SVG 1.1//EN" "http://www.w3.org/Graphics/SVG/1.1/DTD/svg11.dtd">
<svg version="1.1" id="Layer_1" xmlns="http://www.w3.org/2000/svg" xmlns:xlink="http://www.w3.org/1999/xlink" x="0px" y="0px"
	 width="70.531px" height="22.677px" viewBox="0 0 70.531 22.677" enable-background="new 0 0 70.531 22.677" xml:space="preserve">
<g>
	<path fill="#272E3A" d="M21.889,4.384c-1.243-1.563-2.407-2.116-4.051-2.116c-7.176,0-7.375,4.658-7.375,7.417v3.462
		c0,2.236,0,6.986,5.052,7.018V6.618h10.223v14.128c-1.886,1.013-5.013,1.931-9.862,1.931C8.26,22.677,0,19.304,0,11.001
		C0,3.555,6.855,0,15.875,0c4.248,0,6.816,0.981,9.14,2.76C24.333,3.523,22.888,4.076,21.889,4.384z"/>
	<rect x="31.521" y="0.307" fill="#272E3A" width="10.222" height="22.064"/>
	<polygon fill="#272E3A" points="70.531,0.307 70.531,2.851 62.914,2.851 62.914,22.371 52.691,22.371 52.691,2.851 45.074,2.851 
		45.074,0.307 	"/>
</g>
</svg>
