<?xml version="1.0" encoding="utf-8"?>
<!-- Generator: Adobe Illustrator 15.1.0, SVG Export Plug-In . SVG Version: 6.00 Build 0)  -->
<!DOCTYPE svg PUBLIC "-//W3C//DTD SVG 1.1//EN" "http://www.w3.org/Graphics/SVG/1.1/DTD/svg11.dtd">
<svg version="1.1" id="Layer_1" xmlns="http://www.w3.org/2000/svg" xmlns:xlink="http://www.w3.org/1999/xlink" x="0px" y="0px"
	 width="18.676px" height="19.199px" viewBox="0 0 18.676 19.199" enable-background="new 0 0 18.676 19.199" xml:space="preserve">
<path fill="#AAB1BC" d="M16.479,10.539c0.039-0.299,0.059-0.609,0.059-0.939c0-0.319-0.02-0.64-0.07-0.939l2.031-1.58
	c0.18-0.14,0.23-0.41,0.119-0.61l-1.92-3.32c-0.119-0.22-0.369-0.29-0.59-0.22l-2.391,0.96c-0.5-0.38-1.029-0.7-1.619-0.94
	l-0.359-2.54C11.698,0.17,11.499,0,11.258,0h-3.84c-0.24,0-0.43,0.17-0.471,0.41L6.588,2.95c-0.59,0.24-1.13,0.57-1.62,0.94
	l-2.39-0.96c-0.221-0.08-0.471,0-0.59,0.22l-1.91,3.32c-0.12,0.21-0.08,0.47,0.119,0.61l2.031,1.58C2.178,8.96,2.138,9.29,2.138,9.6
	c0,0.311,0.021,0.641,0.07,0.939l-2.03,1.58c-0.18,0.141-0.23,0.41-0.119,0.611l1.92,3.32c0.119,0.219,0.369,0.289,0.59,0.219
	l2.39-0.959c0.5,0.379,1.03,0.699,1.62,0.939l0.359,2.539c0.051,0.24,0.24,0.41,0.48,0.41h3.84c0.24,0,0.439-0.17,0.471-0.41
	l0.359-2.539c0.589-0.24,1.128-0.561,1.619-0.939l2.391,0.959c0.221,0.08,0.471,0,0.59-0.219l1.92-3.32
	c0.121-0.221,0.07-0.471-0.119-0.611L16.479,10.539z M9.338,13.199c-1.98,0-3.6-1.619-3.6-3.6c0-1.979,1.619-3.6,3.6-3.6
	c1.981,0,3.6,1.62,3.6,3.6C12.938,11.58,11.319,13.199,9.338,13.199z"/>
</svg>
