<?xml version="1.0" encoding="utf-8"?>
<!-- Generator: Adobe Illustrator 19.2.1, SVG Export Plug-In . SVG Version: 6.00 Build 0)  -->
<svg version="1.1" id="Слой_1" xmlns="http://www.w3.org/2000/svg" xmlns:xlink="http://www.w3.org/1999/xlink" x="0px" y="0px"
	 viewBox="0 0 34 34" style="enable-background:new 0 0 34 34;" xml:space="preserve">
<style type="text/css">
	.st0{fill:#DB4E41;}
</style>
<g>
	<g>
		<path class="st0" d="M17,34C7.6,34,0,26.4,0,17S7.6,0,17,0c9.4,0,17,7.6,17,17S26.4,34,17,34z M17,4C9.8,4,4,9.8,4,17
			c0,7.2,5.8,13,13,13c7.2,0,13-5.8,13-13C30,9.8,24.2,4,17,4z"/>
	</g>
	<g>
		<circle class="st0" cx="17" cy="23.5" r="1.9"/>
	</g>
	<g>
		<path class="st0" d="M17,19.3c-0.8,0-1.5-0.7-1.5-1.5V9.6c0-0.8,0.7-1.5,1.5-1.5c0.8,0,1.5,0.7,1.5,1.5v8.2
			C18.5,18.6,17.8,19.3,17,19.3z"/>
	</g>
</g>
</svg>
