<?xml version="1.0" encoding="utf-8"?>
<!-- Generator: Adobe Illustrator 15.1.0, SVG Export Plug-In . SVG Version: 6.00 Build 0)  -->
<!DOCTYPE svg PUBLIC "-//W3C//DTD SVG 1.1//EN" "http://www.w3.org/Graphics/SVG/1.1/DTD/svg11.dtd">
<svg version="1.1" id="Layer_1" xmlns="http://www.w3.org/2000/svg" xmlns:xlink="http://www.w3.org/1999/xlink" x="0px" y="0px"
	 width="56.131px" height="35px" viewBox="0 0 56.131 35" enable-background="new 0 0 56.131 35" xml:space="preserve">
<g>
	<path fill="#303743" d="M51.168,10.684c-0.873,0-1.584,0.711-1.584,1.585v19.498H31.592V12.269c0-0.875-0.709-1.585-1.585-1.585
		c-0.873,0-1.585,0.711-1.585,1.585v21.083c0,0.874,0.712,1.585,1.585,1.585h21.166c0.877,0,1.586-0.712,1.586-1.585V12.269
		C52.754,11.39,52.049,10.684,51.168,10.684z"/>
	<path fill="#303743" d="M54.543,4.425h-8.52V1.648c0-0.875-0.709-1.585-1.585-1.585h-7.703c-0.876,0-1.585,0.71-1.585,1.585v2.777
		h-8.564C25.709,4.425,25,5.136,25,6.01s0.712,1.585,1.585,1.585h10.152h7.704h10.106c0.875,0,1.584-0.71,1.584-1.585
		S55.42,4.425,54.543,4.425z M38.323,4.425V3.233h4.533v1.192H38.323z"/>
	<path fill="#303743" d="M38.323,26.652V12.269c0-0.875-0.709-1.585-1.585-1.585c-0.876,0-1.585,0.711-1.585,1.585v14.389
		c0,0.87,0.709,1.585,1.585,1.585C37.614,28.244,38.323,27.528,38.323,26.652z"/>
	<path fill="#303743" d="M46.023,26.652V12.269c0-0.875-0.709-1.585-1.585-1.585c-0.873,0-1.585,0.711-1.585,1.585v14.389
		c0,0.87,0.712,1.585,1.585,1.585C45.314,28.244,46.023,27.528,46.023,26.652z"/>
</g>
</svg>
