<?xml version="1.0" encoding="utf-8"?>
<!-- Generator: Adobe Illustrator 15.1.0, SVG Export Plug-In . SVG Version: 6.00 Build 0)  -->
<!DOCTYPE svg PUBLIC "-//W3C//DTD SVG 1.1//EN" "http://www.w3.org/Graphics/SVG/1.1/DTD/svg11.dtd">
<svg version="1.1" id="Layer_1" xmlns="http://www.w3.org/2000/svg" xmlns:xlink="http://www.w3.org/1999/xlink" x="0px" y="0px"
	 width="9.818px" height="11px" viewBox="0 0 9.818 11" enable-background="new 0 0 9.818 11" xml:space="preserve">
<g>
	<path fill="#AAB1BC" d="M8.254,3.35c-0.276,0-0.5,0.224-0.5,0.5V10H2.079V3.85c0-0.276-0.224-0.5-0.5-0.5s-0.5,0.224-0.5,0.5V10.5
		c0,0.275,0.224,0.5,0.5,0.5h6.676c0.276,0,0.5-0.225,0.5-0.5V3.85C8.754,3.573,8.531,3.35,8.254,3.35z"/>
	<path fill="#AAB1BC" d="M9.318,1.376H6.631V0.5c0-0.276-0.224-0.5-0.5-0.5h-2.43c-0.276,0-0.5,0.224-0.5,0.5v0.876H0.5
		C0.223,1.376,0,1.6,0,1.876s0.224,0.5,0.5,0.5h3.202h2.43h3.187c0.276,0,0.5-0.224,0.5-0.5S9.594,1.376,9.318,1.376z M4.202,1.376
		V1h1.43v0.376H4.202z"/>
	<path fill="#AAB1BC" d="M4.202,8.387V3.85c0-0.276-0.224-0.5-0.5-0.5s-0.5,0.224-0.5,0.5v4.538c0,0.275,0.224,0.5,0.5,0.5
		S4.202,8.663,4.202,8.387z"/>
	<path fill="#AAB1BC" d="M6.631,8.387V3.85c0-0.276-0.224-0.5-0.5-0.5s-0.5,0.224-0.5,0.5v4.538c0,0.275,0.224,0.5,0.5,0.5
		S6.631,8.663,6.631,8.387z"/>
</g>
</svg>
