<?xml version="1.0" encoding="utf-8"?>
<!-- Generator: Adobe Illustrator 15.1.0, SVG Export Plug-In . SVG Version: 6.00 Build 0)  -->
<!DOCTYPE svg PUBLIC "-//W3C//DTD SVG 1.1//EN" "http://www.w3.org/Graphics/SVG/1.1/DTD/svg11.dtd">
<svg version="1.1" id="Layer_1" xmlns="http://www.w3.org/2000/svg" xmlns:xlink="http://www.w3.org/1999/xlink" x="0px" y="0px"
	 width="167.293px" height="27px" viewBox="0 0 167.293 27" enable-background="new 0 0 167.293 27" xml:space="preserve">
<g>
	<path fill="#FFFFFF" d="M166.924,9.729l-0.73,3.151l1.1,3.98h-1.922c-0.233-0.71-0.445-1.579-0.634-2.6
		c-0.054,0.454-0.125,0.937-0.221,1.437l-0.197,1.163h-2.021l0.758-3.98l-0.758-3.151h2.009c0.039,0.196,0.111,0.522,0.218,0.98
		c0.088,0.35,0.155,0.673,0.213,0.967l0.442-1.947H166.924z"/>
	<g>
		<polygon fill="#FFFFFF" points="92.718,1.43 91.192,1.43 91.192,7.144 89.115,7.144 89.115,0 92.718,0 		"/>
		<path fill="#FFFFFF" d="M93.277,0.011h2.093c0.565,0,1.002,0.039,1.304,0.116c0.304,0.081,0.537,0.197,0.683,0.346
			c0.158,0.154,0.261,0.33,0.313,0.54c0.056,0.218,0.086,0.546,0.086,0.994v0.622c0,0.458-0.057,0.784-0.162,0.991
			c-0.104,0.21-0.3,0.369-0.579,0.483c-0.279,0.113-0.646,0.167-1.1,0.167h-0.561v2.875h-2.077V0.011z M95.354,1.233v1.809
			c0.057,0.005,0.111,0.005,0.154,0.005c0.19,0,0.324-0.037,0.396-0.125c0.071-0.083,0.111-0.258,0.111-0.523V1.815
			c0-0.244-0.044-0.406-0.128-0.479C95.803,1.266,95.622,1.233,95.354,1.233"/>
		<path fill="#FFFFFF" d="M102.462,0.004l-0.565,4.729c-0.086,0.74-0.183,1.269-0.288,1.568c-0.099,0.303-0.303,0.515-0.591,0.644
			c-0.292,0.132-0.771,0.198-1.442,0.198H98.36V6.221h0.122c0.272,0,0.445-0.019,0.502-0.062c0.07-0.041,0.101-0.096,0.101-0.177
			c0-0.011-0.039-0.211-0.117-0.607l-1.094-5.372h1.806l0.662,4.445l0.317-4.445H102.462z"/>
		<polygon fill="#FFFFFF" points="107.661,7.144 105.58,7.144 105.58,1.43 104.962,1.43 104.962,7.144 102.882,7.144 102.882,0.004 
			107.661,0.004 		"/>
		<polygon fill="#FFFFFF" points="113.27,7.144 111.192,7.144 111.192,1.43 110.573,1.43 110.573,7.144 108.487,7.144 
			108.487,0.004 113.27,0.004 		"/>
		<path fill="#FFFFFF" d="M117.692,0.011l1.188,7.133h-2.12l-0.114-1.284h-0.743l-0.124,1.284h-2.15l1.061-7.133H117.692z
			 M116.59,4.596c-0.107-0.808-0.211-1.806-0.315-2.997c-0.212,1.371-0.349,2.362-0.399,2.997H116.59z"/>
		<polygon fill="#FFFFFF" points="93.752,16.859 92.016,16.859 92.016,13.614 90.932,16.859 89.115,16.859 89.115,9.726 
			90.847,9.726 90.847,12.943 92.016,9.726 93.752,9.726 		"/>
		<polygon fill="#FFFFFF" points="99.354,9.729 99.354,16.859 97.28,16.859 97.28,13.863 96.661,13.863 96.661,16.859 
			94.581,16.859 94.581,9.729 96.661,9.729 96.661,12.276 97.28,12.276 97.28,9.729 		"/>
		<path fill="#FFFFFF" d="M106.13,18.085h-1.438v-1.226h-3.351v1.226h-1.434v-2.713h0.425c0.224-0.586,0.407-1.351,0.551-2.313
			c0.146-0.95,0.215-1.994,0.215-3.12V9.726h4.611v5.632h0.421V18.085z M103.623,15.357v-4.226h-0.616v0.054
			c0,1.364-0.163,2.756-0.494,4.172H103.623z"/>
		<path fill="#FFFFFF" d="M110.893,9.726l-0.566,4.722c-0.086,0.749-0.187,1.271-0.289,1.574c-0.104,0.301-0.297,0.516-0.589,0.644
			c-0.291,0.126-0.775,0.194-1.445,0.194h-1.214v-0.923h0.12c0.278,0,0.439-0.021,0.505-0.056c0.07-0.043,0.1-0.101,0.1-0.185
			c0-0.008-0.038-0.203-0.119-0.604l-1.09-5.367h1.803l0.661,4.441l0.317-4.441H110.893z"/>
		<path fill="#FFFFFF" d="M116.155,12.833h-2.077v-1.24c0-0.361-0.02-0.583-0.064-0.674c-0.045-0.092-0.14-0.135-0.29-0.135
			c-0.174,0-0.279,0.053-0.327,0.159c-0.049,0.105-0.072,0.348-0.072,0.709v3.31c0,0.352,0.023,0.576,0.072,0.678
			c0.048,0.112,0.146,0.16,0.308,0.16c0.155,0,0.258-0.048,0.308-0.16c0.047-0.102,0.066-0.35,0.066-0.743v-0.897h2.077v0.277
			c0,0.736-0.055,1.262-0.172,1.568c-0.12,0.31-0.376,0.578-0.773,0.815c-0.403,0.232-0.891,0.343-1.479,0.343
			c-0.607,0-1.111-0.091-1.506-0.292c-0.396-0.195-0.657-0.471-0.784-0.817c-0.13-0.347-0.196-0.868-0.196-1.569v-2.089
			c0-0.507,0.022-0.895,0.063-1.149c0.036-0.261,0.157-0.507,0.353-0.748c0.191-0.235,0.466-0.424,0.813-0.56
			c0.346-0.138,0.748-0.207,1.198-0.207c0.612,0,1.116,0.104,1.516,0.319c0.393,0.21,0.656,0.475,0.783,0.793
			c0.126,0.31,0.184,0.801,0.184,1.469V12.833z"/>
		<polygon fill="#FFFFFF" points="121.089,9.729 121.089,11.154 119.853,11.154 119.853,16.859 117.779,16.859 117.779,11.154 
			116.548,11.154 116.548,9.729 		"/>
		<path fill="#FFFFFF" d="M121.559,9.726h2.098c0.566,0,1.001,0.04,1.303,0.121c0.304,0.078,0.532,0.194,0.685,0.34
			c0.151,0.154,0.262,0.333,0.314,0.545c0.054,0.213,0.083,0.544,0.083,0.992v0.62c0,0.456-0.055,0.789-0.165,0.993
			c-0.101,0.208-0.295,0.373-0.574,0.486c-0.286,0.11-0.653,0.163-1.104,0.163h-0.561v2.874h-2.079V9.726z M123.638,10.944v1.819
			c0.061,0,0.109,0,0.155,0c0.193,0,0.32-0.038,0.394-0.124c0.076-0.079,0.113-0.254,0.113-0.523v-0.583
			c0-0.249-0.041-0.406-0.128-0.483C124.083,10.987,123.909,10.944,123.638,10.944"/>
		<polygon fill="#FFFFFF" points="131.272,16.859 129.534,16.859 129.534,13.614 128.455,16.859 126.636,16.859 126.636,9.726 
			128.373,9.726 128.373,12.943 129.534,9.726 131.272,9.726 		"/>
		<path fill="#FFFFFF" d="M135.694,9.726l1.183,7.134h-2.12l-0.112-1.284h-0.742l-0.125,1.284h-2.145l1.056-7.134H135.694z
			 M134.593,14.316c-0.105-0.812-0.213-1.811-0.319-2.997c-0.213,1.36-0.347,2.362-0.396,2.997H134.593z"/>
		<path fill="#FFFFFF" d="M142.304,16.859h-2.078V11.15h-0.609v4.04c0,0.527-0.076,0.915-0.23,1.147
			c-0.152,0.229-0.384,0.372-0.702,0.434c-0.308,0.063-0.804,0.088-1.49,0.088h-0.33v-1.229c0.257,0,0.433-0.028,0.53-0.085
			c0.091-0.053,0.142-0.25,0.142-0.577V9.726h4.769V16.859z"/>
		<path fill="#FFFFFF" d="M147.978,15.19c0,0.527-0.081,0.915-0.234,1.147c-0.154,0.229-0.388,0.372-0.704,0.434
			c-0.314,0.063-0.809,0.088-1.505,0.088h-2.398V9.726h2.083v2.443h0.315c0.646,0,1.129,0.034,1.46,0.1
			c0.331,0.069,0.573,0.215,0.74,0.441c0.159,0.236,0.243,0.6,0.243,1.094V15.19z M145.896,14.969v-1.025
			c0-0.3-0.038-0.481-0.104-0.549c-0.068-0.062-0.262-0.104-0.574-0.108v2.344c0.262,0,0.443-0.035,0.536-0.096
			C145.85,15.479,145.896,15.288,145.896,14.969"/>
		<polygon fill="#FFFFFF" points="153.483,9.729 153.483,16.859 151.41,16.859 151.41,13.863 150.791,13.863 150.791,16.859 
			148.711,16.859 148.711,9.729 150.791,9.729 150.791,12.276 151.41,12.276 151.41,9.729 		"/>
		<path fill="#FFFFFF" d="M159.162,15.19c0,0.527-0.076,0.915-0.233,1.147c-0.152,0.229-0.386,0.372-0.702,0.434
			c-0.313,0.063-0.814,0.088-1.503,0.088h-2.401V9.726h2.081v2.443h0.32c0.645,0,1.129,0.034,1.459,0.1
			c0.328,0.069,0.572,0.22,0.733,0.441c0.165,0.236,0.246,0.6,0.246,1.094V15.19z M157.084,14.969v-1.028
			c0-0.297-0.039-0.478-0.108-0.542c-0.067-0.065-0.258-0.108-0.572-0.112v2.344c0.265,0,0.441-0.035,0.534-0.096
			C157.033,15.479,157.084,15.292,157.084,14.969 M161.952,16.859h-2.083V9.726h2.083V16.859z"/>
		<polygon fill="#FFFFFF" points="93.652,19.646 93.652,21.07 92.417,21.07 92.417,26.777 90.344,26.777 90.344,21.07 89.115,21.07 
			89.115,19.646 		"/>
		<polygon fill="#FFFFFF" points="94.126,19.646 97.59,19.646 97.59,21.07 96.203,21.07 96.203,22.424 97.503,22.424 97.503,23.783 
			96.203,23.783 96.203,25.349 97.729,25.349 97.729,26.777 94.126,26.777 		"/>
		<path fill="#FFFFFF" d="M102.535,19.646l-0.728,3.15l1.1,3.981h-1.929c-0.226-0.709-0.438-1.578-0.625-2.604
			c-0.054,0.457-0.128,0.931-0.226,1.438l-0.194,1.166h-2.021l0.755-3.981l-0.755-3.15h2.009c0.036,0.196,0.108,0.522,0.213,0.98
			c0.091,0.35,0.161,0.671,0.219,0.968l0.44-1.948H102.535z"/>
		<polygon fill="#FFFFFF" points="107.979,19.646 107.979,26.777 105.896,26.777 105.896,23.783 105.274,23.783 105.274,26.777 
			103.199,26.777 103.199,19.646 105.274,19.646 105.274,22.193 105.896,22.193 105.896,19.646 		"/>
		<path fill="#FFFFFF" d="M113.556,23.821c0,0.715-0.016,1.223-0.056,1.522c-0.036,0.297-0.156,0.568-0.352,0.815
			c-0.203,0.251-0.471,0.439-0.81,0.567c-0.336,0.134-0.732,0.197-1.182,0.197c-0.43,0-0.816-0.059-1.152-0.189
			c-0.343-0.121-0.619-0.308-0.823-0.558c-0.208-0.25-0.33-0.518-0.373-0.813c-0.037-0.297-0.056-0.808-0.056-1.542v-1.221
			c0-0.719,0.019-1.227,0.056-1.522c0.04-0.304,0.156-0.568,0.354-0.822c0.196-0.242,0.469-0.432,0.807-0.565
			c0.342-0.128,0.734-0.194,1.188-0.194c0.428,0,0.811,0.058,1.153,0.188c0.336,0.121,0.612,0.308,0.818,0.561
			c0.206,0.247,0.332,0.52,0.371,0.814c0.036,0.293,0.056,0.803,0.056,1.542V23.821z M111.483,21.477
			c0-0.332-0.022-0.541-0.065-0.633c-0.042-0.101-0.126-0.142-0.253-0.142c-0.112,0-0.194,0.038-0.251,0.111
			c-0.058,0.073-0.084,0.292-0.084,0.663v3.333c0,0.413,0.021,0.671,0.053,0.765c0.044,0.097,0.128,0.146,0.267,0.146
			c0.143,0,0.23-0.06,0.272-0.17c0.039-0.107,0.062-0.373,0.062-0.8V21.477z"/>
		<path fill="#FFFFFF" d="M119.407,26.777h-2.083v-5.71h-0.61v4.042c0,0.531-0.074,0.914-0.231,1.145
			c-0.147,0.232-0.382,0.376-0.698,0.435c-0.309,0.057-0.807,0.089-1.491,0.089h-0.324v-1.229c0.255,0,0.43-0.027,0.52-0.086
			c0.1-0.053,0.146-0.242,0.146-0.571v-5.249h4.773V26.777z"/>
		<path fill="#FFFFFF" d="M124.978,23.821c0,0.715-0.015,1.223-0.051,1.522c-0.04,0.297-0.16,0.568-0.357,0.815
			c-0.201,0.251-0.466,0.439-0.808,0.567c-0.335,0.134-0.731,0.197-1.181,0.197c-0.431,0-0.814-0.059-1.154-0.189
			c-0.342-0.121-0.614-0.308-0.823-0.558c-0.207-0.25-0.329-0.518-0.372-0.813c-0.037-0.297-0.056-0.808-0.056-1.542v-1.221
			c0-0.719,0.019-1.227,0.056-1.522c0.04-0.304,0.156-0.568,0.358-0.822c0.196-0.242,0.465-0.432,0.803-0.565
			c0.342-0.128,0.733-0.194,1.188-0.194c0.427,0,0.811,0.058,1.15,0.188c0.338,0.121,0.614,0.308,0.82,0.561
			c0.211,0.247,0.332,0.52,0.371,0.814c0.04,0.293,0.055,0.803,0.055,1.542V23.821z M122.904,21.477
			c0-0.332-0.023-0.541-0.063-0.633c-0.042-0.101-0.125-0.142-0.253-0.142c-0.108,0-0.19,0.038-0.247,0.111
			c-0.06,0.073-0.087,0.292-0.087,0.663v3.333c0,0.413,0.019,0.671,0.057,0.765c0.037,0.097,0.123,0.146,0.266,0.146
			c0.14,0,0.231-0.06,0.27-0.17c0.035-0.107,0.059-0.373,0.059-0.8V21.477z"/>
		<polygon fill="#FFFFFF" points="129.362,21.067 127.837,21.067 127.837,26.777 125.756,26.777 125.756,19.642 129.362,19.642 		
			"/>
		<polygon fill="#FFFFFF" points="134.561,26.777 132.823,26.777 132.823,23.532 131.744,26.777 129.923,26.777 129.923,19.642 
			131.659,19.642 131.659,22.861 132.823,19.642 134.561,19.642 		"/>
		<path fill="#FFFFFF" d="M140.024,26.777h-1.735v-3.245l-1.079,3.245h-1.82v-7.136h1.735v3.22l1.164-3.22h1.735V26.777z
			 M138.261,18.085h0.838c-0.016,0.399-0.15,0.728-0.394,0.969c-0.241,0.247-0.575,0.369-1.007,0.369
			c-0.436,0-0.772-0.127-1.013-0.373c-0.234-0.24-0.362-0.565-0.387-0.965h0.844c0.037,0.403,0.223,0.605,0.556,0.605
			C138.032,18.69,138.222,18.488,138.261,18.085"/>
		<path fill="#FFFFFF" d="M26.053,5.226c-1.479-1.864-2.865-2.522-4.82-2.522c-8.545,0-8.779,5.542-8.779,8.83v4.119
			c0,2.663,0,8.319,6.013,8.354V7.883h12.169V24.7c-2.244,1.208-5.967,2.3-11.74,2.3C9.83,27,0,22.985,0,13.102
			C0,4.234,8.158,0,18.895,0c5.059,0,8.113,1.172,10.879,3.289C28.963,4.199,27.242,4.856,26.053,5.226"/>
		<rect x="37.521" y="0.37" fill="#FFFFFF" width="12.169" height="26.266"/>
		<polygon fill="#FFFFFF" points="83.958,0.37 83.958,3.396 74.895,3.396 74.895,26.636 62.724,26.636 62.724,3.396 53.655,3.396 
			53.655,0.37 		"/>
	</g>
</g>
</svg>
