<?xml version="1.0" encoding="utf-8"?>
<!-- Generator: Adobe Illustrator 19.2.1, SVG Export Plug-In . SVG Version: 6.00 Build 0)  -->
<svg version="1.1" id="Слой_1" xmlns="http://www.w3.org/2000/svg" xmlns:xlink="http://www.w3.org/1999/xlink" x="0px" y="0px"
	 viewBox="0 0 34 34" style="enable-background:new 0 0 34 34;" xml:space="preserve">
<style type="text/css">
	.st0{fill:#5AB462;}
</style>
<g>
	<path class="st0" d="M15.3,24.3c-0.4,0-0.8-0.2-1.1-0.5l-5.8-6c-0.6-0.6-0.6-1.5,0-2.1c0.6-0.6,1.5-0.6,2.1,0l4.7,4.9l8.1-7.9
		c0.6-0.6,1.5-0.6,2.1,0c0.6,0.6,0.6,1.5,0,2.1l-9.2,8.9C16,24.2,15.7,24.3,15.3,24.3z"/>
</g>
<g>
	<path class="st0" d="M17,34C7.6,34,0,26.4,0,17S7.6,0,17,0c9.4,0,17,7.6,17,17S26.4,34,17,34z M17,4C9.8,4,4,9.8,4,17
		c0,7.2,5.8,13,13,13c7.2,0,13-5.8,13-13C30,9.8,24.2,4,17,4z"/>
</g>
</svg>
