<?xml version="1.0" encoding="utf-8"?>
<!-- Generator: Adobe Illustrator 15.1.0, SVG Export Plug-In . SVG Version: 6.00 Build 0)  -->
<!DOCTYPE svg PUBLIC "-//W3C//DTD SVG 1.1//EN" "http://www.w3.org/Graphics/SVG/1.1/DTD/svg11.dtd">
<svg version="1.1" id="Layer_1" xmlns="http://www.w3.org/2000/svg" xmlns:xlink="http://www.w3.org/1999/xlink" x="0px" y="0px"
	 width="621.231px" height="115.698px" viewBox="0 0 621.231 115.698" enable-background="new 0 0 621.231 115.698"
	 xml:space="preserve">
<g>
	<path d="M399.038,12.717h-8.749V9.989c0-1.719-0.083-2.795-0.249-3.229c-0.166-0.433-0.562-0.649-1.185-0.649
		c-0.54,0-0.908,0.186-1.102,0.557c-0.194,0.371-0.291,1.324-0.291,2.857v14.417c0,1.349,0.097,2.236,0.291,2.663
		c0.193,0.427,0.582,0.64,1.164,0.64c0.637,0,1.07-0.241,1.299-0.724s0.343-1.422,0.343-2.82v-3.563h-1.767v-4.564h10.245v16.124
		h-5.498l-0.809-2.152c-0.597,0.928-1.349,1.624-2.257,2.087s-1.979,0.696-3.213,0.696c-1.47,0-2.846-0.319-4.129-0.956
		c-1.282-0.637-2.256-1.425-2.922-2.366c-0.665-0.94-1.081-1.926-1.247-2.959c-0.167-1.033-0.25-2.582-0.25-4.648v-8.925
		c0-2.87,0.173-4.954,0.52-6.253s1.341-2.489,2.982-3.572c1.642-1.082,3.765-1.624,6.369-1.624c2.563,0,4.689,0.47,6.38,1.41
		c1.69,0.94,2.792,2.057,3.305,3.349c0.512,1.293,0.769,3.17,0.769,5.631V12.717z"/>
	<path d="M402.426,1.658h6.192c4.128,0,6.924,0.143,8.386,0.427c1.461,0.285,2.652,1.011,3.574,2.18
		c0.921,1.169,1.382,3.034,1.382,5.594c0,2.338-0.326,3.909-0.977,4.713c-0.651,0.804-1.933,1.287-3.845,1.447
		c1.731,0.384,2.896,0.897,3.491,1.54c0.596,0.644,0.966,1.234,1.111,1.772s0.219,2.02,0.219,4.444v7.923h-8.126v-9.982
		c0-1.608-0.142-2.604-0.426-2.987c-0.284-0.383-1.028-0.575-2.233-0.575v13.545h-8.749V1.658z M411.175,6.798v6.68
		c0.983,0,1.673-0.121,2.067-0.362s0.592-1.023,0.592-2.347V9.117c0-0.952-0.19-1.577-0.571-1.874S412.186,6.798,411.175,6.798z"/>
	<path d="M445.339,19.248c0,3.019-0.08,5.155-0.239,6.411c-0.159,1.256-0.658,2.403-1.496,3.442
		c-0.839,1.039-1.971,1.837-3.397,2.394c-1.428,0.557-3.09,0.835-4.988,0.835c-1.801,0-3.418-0.263-4.852-0.789
		c-1.435-0.525-2.588-1.314-3.461-2.366c-0.872-1.051-1.392-2.195-1.559-3.433c-0.166-1.237-0.249-3.401-0.249-6.494v-5.14
		c0-3.018,0.08-5.155,0.239-6.411c0.159-1.255,0.657-2.403,1.496-3.442c0.838-1.039,1.971-1.837,3.397-2.394s3.09-0.835,4.987-0.835
		c1.802,0,3.419,0.263,4.853,0.789c1.435,0.526,2.588,1.314,3.46,2.366c0.873,1.052,1.393,2.196,1.559,3.433
		c0.167,1.237,0.25,3.402,0.25,6.494V19.248z M436.59,9.377c0-1.397-0.087-2.292-0.26-2.681c-0.174-0.39-0.53-0.584-1.07-0.584
		c-0.457,0-0.808,0.158-1.05,0.473s-0.363,1.247-0.363,2.792v14.027c0,1.744,0.079,2.82,0.239,3.229
		c0.159,0.408,0.529,0.612,1.111,0.612c0.596,0,0.977-0.235,1.144-0.705c0.166-0.47,0.249-1.589,0.249-3.358V9.377z"/>
	<path d="M468.489,1.658v20.076c0,2.276-0.083,3.875-0.25,4.796c-0.166,0.922-0.658,1.868-1.476,2.839
		c-0.817,0.971-1.895,1.707-3.231,2.208s-2.912,0.751-4.728,0.751c-2.009,0-3.782-0.297-5.319-0.891
		c-1.538-0.594-2.688-1.367-3.45-2.319c-0.762-0.952-1.212-1.958-1.351-3.015s-0.208-3.281-0.208-6.67V1.658h8.749v22.525
		c0,1.312,0.079,2.149,0.239,2.514c0.159,0.365,0.48,0.547,0.966,0.547c0.554,0,0.911-0.201,1.07-0.603
		c0.159-0.402,0.239-1.351,0.239-2.848V1.658H468.489z"/>
	<path d="M471.876,1.658h8.812c2.383,0,4.215,0.167,5.497,0.501c1.281,0.334,2.244,0.816,2.889,1.447
		c0.644,0.631,1.08,1.395,1.309,2.292c0.229,0.897,0.343,2.286,0.343,4.166v2.616c0,1.917-0.222,3.315-0.665,4.193
		c-0.443,0.878-1.257,1.553-2.441,2.022c-1.185,0.47-2.732,0.705-4.645,0.705h-2.349v12.098h-8.749V1.658z M480.625,6.798v7.645
		c0.25,0.013,0.464,0.019,0.645,0.019c0.804,0,1.361-0.176,1.673-0.529s0.468-1.085,0.468-2.199V9.266
		c0-1.026-0.181-1.694-0.541-2.004C482.509,6.953,481.761,6.798,480.625,6.798z"/>
	<path d="M520.733,19.248c0,3.019-0.08,5.155-0.239,6.411c-0.159,1.256-0.658,2.403-1.496,3.442
		c-0.839,1.039-1.972,1.837-3.398,2.394s-3.089,0.835-4.987,0.835c-1.801,0-3.418-0.263-4.853-0.789
		c-1.434-0.525-2.587-1.314-3.46-2.366c-0.872-1.051-1.392-2.195-1.559-3.433c-0.166-1.237-0.249-3.401-0.249-6.494v-5.14
		c0-3.018,0.079-5.155,0.239-6.411c0.159-1.255,0.657-2.403,1.496-3.442c0.838-1.039,1.971-1.837,3.397-2.394
		s3.089-0.835,4.987-0.835c1.801,0,3.419,0.263,4.853,0.789c1.434,0.526,2.588,1.314,3.46,2.366
		c0.873,1.052,1.393,2.196,1.559,3.433c0.167,1.237,0.25,3.402,0.25,6.494V19.248z M511.984,9.377c0-1.397-0.087-2.292-0.26-2.681
		c-0.174-0.39-0.53-0.584-1.07-0.584c-0.457,0-0.808,0.158-1.05,0.473s-0.363,1.247-0.363,2.792v14.027
		c0,1.744,0.079,2.82,0.239,3.229c0.158,0.408,0.529,0.612,1.111,0.612c0.596,0,0.977-0.235,1.143-0.705
		c0.167-0.47,0.25-1.589,0.25-3.358V9.377z"/>
	<path d="M523.996,1.658h14.816V7.67h-6.068v5.696h5.403v5.715h-5.403v12.617h-8.748V1.658z"/>
	<path d="M387.712,43.658v30.04h-8.748v-30.04H387.712z"/>
	<path d="M410.759,43.658v30.04h-7.668l-4.552-13.656v13.656h-7.314v-30.04h7.314l4.904,13.526V43.658H410.759z"/>
	<path d="M414.271,43.658h6.546c4.226,0,7.083,0.173,8.572,0.52c1.489,0.347,2.622,0.916,3.398,1.707
		c0.775,0.792,1.26,1.673,1.454,2.644c0.194,0.971,0.291,2.879,0.291,5.724v10.521c0,2.697-0.142,4.5-0.426,5.408
		c-0.284,0.91-0.779,1.621-1.486,2.135c-0.706,0.514-1.579,0.871-2.618,1.076c-1.039,0.203-2.604,0.306-4.696,0.306h-11.035V43.658z
		 M423.02,48.798v19.761c1.261,0,2.037-0.226,2.327-0.678c0.291-0.451,0.437-1.679,0.437-3.683V52.527
		c0-1.36-0.049-2.232-0.146-2.616c-0.097-0.383-0.318-0.665-0.665-0.844C424.627,48.888,423.976,48.798,423.02,48.798z"/>
	<path d="M457.683,43.658v20.076c0,2.276-0.083,3.875-0.249,4.797s-0.658,1.867-1.476,2.838c-0.817,0.972-1.895,1.707-3.231,2.209
		c-1.337,0.5-2.913,0.751-4.728,0.751c-2.01,0-3.782-0.297-5.32-0.891s-2.688-1.366-3.45-2.319
		c-0.762-0.952-1.212-1.957-1.351-3.016c-0.139-1.057-0.208-3.28-0.208-6.67V43.658h8.749v22.525c0,1.312,0.08,2.149,0.239,2.514
		c0.159,0.365,0.481,0.548,0.967,0.548c0.554,0,0.91-0.2,1.07-0.603c0.158-0.402,0.238-1.352,0.238-2.849V43.658H457.683z"/>
	<path d="M479.607,52.75h-8.126v-2.227c0-1.039-0.104-1.701-0.312-1.985c-0.208-0.284-0.555-0.427-1.039-0.427
		c-0.526,0-0.925,0.192-1.195,0.576c-0.27,0.384-0.405,0.965-0.405,1.746c0,1.002,0.152,1.757,0.456,2.265
		c0.29,0.507,1.114,1.12,2.472,1.836c3.895,2.064,6.348,3.758,7.359,5.081c1.011,1.324,1.517,3.457,1.517,6.401
		c0,2.14-0.28,3.718-0.842,4.731c-0.561,1.015-1.645,1.865-3.252,2.551c-1.607,0.688-3.478,1.03-5.61,1.03
		c-2.342,0-4.341-0.396-5.996-1.188s-2.739-1.8-3.252-3.024s-0.769-2.963-0.769-5.214v-1.967h8.125v3.655
		c0,1.126,0.114,1.85,0.343,2.171s0.634,0.482,1.216,0.482s1.015-0.204,1.299-0.612s0.426-1.014,0.426-1.818
		c0-1.769-0.27-2.926-0.811-3.47c-0.554-0.544-1.919-1.453-4.094-2.728c-2.175-1.286-3.615-2.22-4.322-2.802
		c-0.707-0.581-1.292-1.385-1.756-2.412c-0.465-1.026-0.696-2.338-0.696-3.934c0-2.301,0.329-3.983,0.987-5.047
		c0.657-1.063,1.721-1.896,3.189-2.496c1.469-0.6,3.242-0.9,5.32-0.9c2.271,0,4.208,0.328,5.809,0.983
		c1.6,0.656,2.66,1.481,3.18,2.477c0.52,0.996,0.779,2.688,0.779,5.075V52.75z"/>
	<path d="M500.7,43.658v6.012h-5.195v24.028h-8.749V49.67h-5.175v-6.012H500.7z"/>
	<path d="M502.695,43.658h6.192c4.128,0,6.924,0.143,8.386,0.427c1.461,0.285,2.652,1.011,3.574,2.18
		c0.921,1.169,1.382,3.034,1.382,5.594c0,2.338-0.326,3.909-0.977,4.713c-0.651,0.804-1.933,1.287-3.845,1.447
		c1.731,0.384,2.896,0.897,3.491,1.54c0.596,0.644,0.966,1.233,1.111,1.772c0.146,0.537,0.219,2.02,0.219,4.443v7.923h-8.126v-9.982
		c0-1.608-0.142-2.604-0.426-2.987c-0.284-0.383-1.028-0.575-2.234-0.575v13.545h-8.748V43.658z M511.443,48.798v6.68
		c0.984,0,1.674-0.121,2.068-0.362s0.592-1.023,0.592-2.347v-1.651c0-0.952-0.19-1.577-0.571-1.874S512.455,48.798,511.443,48.798z"
		/>
	<path d="M534.365,43.658v30.04h-8.749v-30.04H534.365z"/>
	<path d="M553.001,43.658l5.003,30.04h-8.94l-0.47-5.399h-3.13l-0.525,5.399h-9.046l4.463-30.04H553.001z M548.364,62.974
		c-0.443-3.402-0.887-7.608-1.333-12.617c-0.891,5.752-1.45,9.958-1.679,12.617H548.364z"/>
	<path d="M568.239,43.658v24.028h5.319v6.012H559.49v-30.04H568.239z"/>
	<path d="M396.586,85.658v6.012h-5.195v24.028h-8.749V91.67h-5.175v-6.012H396.586z"/>
	<path d="M398.581,85.658h14.588v6.012h-5.839v5.696h5.465v5.715h-5.465v6.605h6.421v6.012h-15.17V85.658z"/>
	<path d="M436.693,98.739h-8.749v-5.222c0-1.518-0.093-2.465-0.28-2.842c-0.187-0.376-0.6-0.564-1.236-0.564
		c-0.721,0-1.178,0.229-1.371,0.687c-0.194,0.458-0.291,1.447-0.291,2.969v13.953c0,1.46,0.097,2.412,0.291,2.857
		c0.193,0.445,0.63,0.668,1.309,0.668c0.651,0,1.077-0.224,1.278-0.669c0.2-0.447,0.301-1.494,0.301-3.145v-3.775h8.749v1.171
		c0,3.109-0.246,5.314-0.737,6.614c-0.492,1.301-1.579,2.441-3.263,3.42s-3.758,1.468-6.224,1.468c-2.563,0-4.676-0.415-6.339-1.243
		c-1.662-0.828-2.764-1.977-3.304-3.441c-0.541-1.467-0.811-3.671-0.811-6.615v-8.776c0-2.165,0.083-3.788,0.249-4.87
		s0.661-2.125,1.486-3.127c0.824-1.002,1.967-1.791,3.429-2.365c1.461-0.576,3.141-0.863,5.039-0.863
		c2.577,0,4.703,0.445,6.38,1.334c1.677,0.89,2.777,1.998,3.305,3.326c0.526,1.328,0.789,3.395,0.789,6.198V98.739z"/>
	<path d="M459.948,85.658v30.04h-8.749v-12.617h-2.619v12.617h-8.748v-30.04h8.748v10.743h2.619V85.658H459.948z"/>
	<path d="M482.994,85.658v30.04h-7.668l-4.551-13.656v13.656h-7.315v-30.04h7.315l4.904,13.526V85.658H482.994z"/>
	<path d="M506.498,103.248c0,3.019-0.08,5.155-0.239,6.41c-0.159,1.256-0.658,2.403-1.496,3.442
		c-0.839,1.039-1.971,1.837-3.397,2.394c-1.428,0.557-3.09,0.835-4.988,0.835c-1.801,0-3.418-0.263-4.852-0.788
		c-1.435-0.525-2.588-1.314-3.461-2.366c-0.872-1.052-1.392-2.195-1.559-3.433c-0.166-1.236-0.249-3.401-0.249-6.494v-5.14
		c0-3.019,0.08-5.155,0.239-6.411c0.159-1.255,0.657-2.402,1.496-3.441c0.838-1.039,1.971-1.837,3.397-2.394s3.09-0.835,4.987-0.835
		c1.802,0,3.419,0.264,4.853,0.789c1.435,0.525,2.588,1.314,3.46,2.365c0.873,1.052,1.393,2.195,1.559,3.433
		c0.167,1.237,0.25,3.401,0.25,6.494V103.248z M497.749,93.377c0-1.397-0.087-2.291-0.26-2.682c-0.174-0.389-0.53-0.584-1.07-0.584
		c-0.457,0-0.808,0.158-1.05,0.473c-0.242,0.316-0.363,1.247-0.363,2.793v14.027c0,1.744,0.079,2.82,0.239,3.229
		c0.159,0.408,0.529,0.612,1.111,0.612c0.596,0,0.977-0.235,1.144-0.705c0.166-0.47,0.249-1.589,0.249-3.358V93.377z"/>
	<path d="M518.51,85.658v24.028h5.319v6.012h-14.068v-30.04H518.51z"/>
	<path d="M545.297,103.248c0,3.019-0.08,5.155-0.239,6.41c-0.159,1.256-0.658,2.403-1.496,3.442
		c-0.839,1.039-1.972,1.837-3.398,2.394s-3.089,0.835-4.987,0.835c-1.801,0-3.418-0.263-4.853-0.788
		c-1.434-0.525-2.587-1.314-3.46-2.366s-1.393-2.195-1.559-3.433c-0.166-1.236-0.249-3.401-0.249-6.494v-5.14
		c0-3.019,0.079-5.155,0.239-6.411c0.159-1.255,0.657-2.402,1.496-3.441c0.838-1.039,1.971-1.837,3.397-2.394
		s3.089-0.835,4.987-0.835c1.801,0,3.419,0.264,4.853,0.789s2.587,1.314,3.46,2.365c0.873,1.052,1.393,2.195,1.559,3.433
		s0.25,3.401,0.25,6.494V103.248z M536.548,93.377c0-1.397-0.087-2.291-0.26-2.682c-0.174-0.389-0.53-0.584-1.07-0.584
		c-0.457,0-0.808,0.158-1.05,0.473c-0.242,0.316-0.363,1.247-0.363,2.793v14.027c0,1.744,0.079,2.82,0.238,3.229
		s0.53,0.612,1.112,0.612c0.596,0,0.977-0.235,1.143-0.705c0.167-0.47,0.25-1.589,0.25-3.358V93.377z"/>
	<path d="M568.634,96.717h-8.749v-2.728c0-1.72-0.083-2.796-0.249-3.229s-0.562-0.649-1.185-0.649c-0.54,0-0.908,0.186-1.102,0.557
		c-0.194,0.371-0.291,1.324-0.291,2.857v14.417c0,1.349,0.097,2.235,0.291,2.663c0.193,0.426,0.582,0.64,1.164,0.64
		c0.637,0,1.07-0.241,1.299-0.724s0.343-1.422,0.343-2.82v-3.563h-1.767v-4.564h10.245v16.124h-5.498l-0.809-2.152
		c-0.597,0.928-1.349,1.624-2.257,2.087c-0.908,0.465-1.979,0.696-3.213,0.696c-1.47,0-2.846-0.319-4.129-0.956
		c-1.282-0.637-2.256-1.425-2.922-2.365c-0.665-0.939-1.081-1.926-1.247-2.959c-0.167-1.033-0.25-2.582-0.25-4.648v-8.925
		c0-2.87,0.173-4.954,0.52-6.253s1.341-2.489,2.982-3.572c1.642-1.082,3.765-1.623,6.369-1.623c2.563,0,4.689,0.471,6.38,1.41
		c1.69,0.94,2.792,2.057,3.305,3.35c0.512,1.293,0.769,3.17,0.769,5.631V96.717z"/>
	<path d="M580.771,85.658v30.04h-8.749v-30.04H580.771z"/>
	<path d="M584.282,85.658h14.588v6.012h-5.839v5.696h5.465v5.715h-5.465v6.605h6.421v6.012h-15.17V85.658z"/>
	<path d="M620.504,94.75h-8.126v-2.227c0-1.039-0.104-1.701-0.312-1.985s-0.554-0.427-1.039-0.427c-0.526,0-0.925,0.191-1.194,0.576
		c-0.271,0.383-0.405,0.965-0.405,1.745c0,1.003,0.151,1.757,0.455,2.265c0.29,0.508,1.114,1.12,2.473,1.837
		c3.895,2.063,6.347,3.758,7.358,5.081c1.012,1.324,1.518,3.457,1.518,6.401c0,2.14-0.281,3.718-0.842,4.731
		c-0.562,1.015-1.646,1.865-3.253,2.551c-1.606,0.688-3.478,1.03-5.61,1.03c-2.342,0-4.34-0.396-5.995-1.188
		c-1.656-0.792-2.74-1.8-3.253-3.024s-0.769-2.963-0.769-5.214v-1.967h8.125v3.655c0,1.126,0.114,1.85,0.344,2.171
		c0.229,0.321,0.634,0.482,1.215,0.482c0.582,0,1.015-0.204,1.299-0.612s0.427-1.014,0.427-1.818c0-1.769-0.271-2.926-0.811-3.47
		c-0.555-0.544-1.919-1.453-4.094-2.728c-2.176-1.286-3.616-2.221-4.323-2.802c-0.706-0.581-1.292-1.386-1.756-2.412
		s-0.696-2.338-0.696-3.934c0-2.301,0.329-3.983,0.987-5.047s1.722-1.896,3.19-2.495c1.468-0.6,3.241-0.9,5.319-0.9
		c2.272,0,4.208,0.328,5.809,0.983s2.66,1.481,3.18,2.478s0.779,2.688,0.779,5.074V94.75z"/>
</g>
<g>
	<path fill="#666666" d="M110.073,22.095c-6.253-7.86-12.103-10.638-20.37-10.638c-36.09,0-37.09,23.422-37.09,37.297v17.409
		c0,11.244,0,35.135,25.404,35.287V33.333h51.406v71.045c-9.481,5.096-25.209,9.712-49.596,9.712C41.535,114.09,0,97.127,0,55.373
		C0,17.927,34.473,0.052,79.828,0.052c21.365,0,34.275,4.936,45.963,13.878C122.362,17.771,115.1,20.552,110.073,22.095z"/>
	<rect x="158.508" y="1.595" fill="#666666" width="51.406" height="110.956"/>
	<polygon fill="#666666" points="354.682,1.595 354.682,14.387 316.378,14.387 316.378,112.551 264.971,112.551 264.971,14.387 
		226.666,14.387 226.666,1.595 	"/>
</g>
</svg>
